# Blender v2.79 (sub 0) OBJ File: ''
# www.blender.org
mtllib ORG_LOG_LARGE.mtl
o ORG_LOG_LARGE
v -5.187500 -0.000008 47.687500
v -3.625000 3.687508 -47.687500
v -3.625000 3.687492 47.687500
v 0.000000 5.187492 47.687500
v 0.000000 5.187508 -47.687500
v -5.187500 0.000008 -47.687500
v 3.687500 3.687508 -47.687500
v 3.687500 3.687492 47.687500
v 5.250000 -0.000008 47.687500
v 5.250000 0.000008 -47.687500
v -3.625000 -3.687492 -47.687500
v -3.625000 -3.687508 47.687500
v 0.000000 -5.187492 -47.687500
v 0.000000 -5.187508 47.687500
v 3.687500 -3.687492 -47.687500
v 3.687500 -3.687508 47.687500
vt 0.007843 0.768627
vt 0.988235 0.717647
vt 0.988235 0.486275
vt 0.007843 0.537255
vt 0.007843 0.866667
vt 0.988235 0.811765
vt 0.007843 0.305882
vt 0.988235 0.254902
vt 0.988235 0.160784
vt 0.007843 0.211765
vt 0.007843 0.768627
vt 0.988235 0.717647
vt 0.007843 0.537255
vt 0.988235 0.486275
vt 0.007843 0.305882
vt 0.988235 0.254902
vt 0.019608 0.494118
vt 0.164706 0.839216
vt 0.858824 0.839216
vt 1.000000 0.494118
vt 0.164706 0.145098
vt 0.858824 0.145098
vt 1.000000 0.494118
vt 0.858824 0.839216
vt 0.164706 0.839216
vt 0.019608 0.494118
vt 0.164706 0.145098
vt 0.858824 0.145098
vt 0.509804 0.984314
vt 0.509804 0.000000
vt 0.509804 0.984314
vt 0.509804 0.000000
vn -0.5463 0.5509 -0.6309
vn -0.5463 0.5509 0.6309
vn -0.0023 0.7759 0.6308
vn -0.0023 0.7759 -0.6308
vn -0.7775 0.0000 -0.6289
vn -0.7775 0.0000 0.6289
vn 0.5449 0.5528 -0.6304
vn 0.5449 0.5528 0.6304
vn 0.7775 0.0000 0.6289
vn 0.7775 0.0000 -0.6289
vn -0.5463 -0.5509 -0.6309
vn -0.5463 -0.5509 0.6309
vn -0.0023 -0.7759 -0.6308
vn -0.0023 -0.7759 0.6308
vn 0.5449 -0.5528 -0.6304
vn 0.5449 -0.5528 0.6304
usemtl 16.png
s 1
f 2/1/1 3/2/2 4/3/3 5/4/4
f 6/5/5 1/6/6 3/2/2 2/1/1
f 7/7/7 8/8/8 9/9/9 10/10/10
f 5/4/4 4/3/3 8/8/8 7/7/7
f 11/11/11 12/12/12 1/6/6 6/5/5
f 13/13/13 14/14/14 12/12/12 11/11/11
f 15/15/15 16/16/16 14/14/14 13/13/13
f 10/10/10 9/9/9 16/16/16 15/15/15
usemtl 25.png
f 9/17/9 8/18/8 3/19/2 1/20/6
f 16/21/16 9/17/9 1/20/6 12/22/12
f 6/23/5 2/24/1 7/25/7 10/26/10
f 6/23/5 10/26/10 15/27/15 11/28/11
f 8/18/8 4/29/3 3/19/2
f 14/30/14 16/21/16 12/22/12
f 2/24/1 5/31/4 7/25/7
f 15/27/15 13/32/13 11/28/11
