# Wavefront OBJ file
# Exported by Maverick Model 3D 1.3.12
# Fri Sep 04 09:53:12 2020

mtllib SUB_STAT_DOG_KENNEL.mtl

# 25 Vertices
v -8.9375 13.875 10.75
v 8.9375 13.875 10.75
v 8.9375 13.875 -10.75
v -8.9375 13.875 -10.75
v -0.0 21.625 10.75
v -0.0 21.625 -10.75
v 7.9375 -0.0 10.75
v -7.9375 -0.0 10.75
v -7.9375 -0.0 -10.75
v 7.9375 -0.0 -10.75
v 7.9375 14.6875 -10.75
v -7.9375 14.6875 -10.75
v 7.9375 14.6875 10.75
v -7.9375 14.6875 10.75
v 5.625 12.9375 10.75
v 5.5 -0.0 10.75
v -0.0 15.9375 10.75
v -5.625 12.9375 10.75
v -5.6875 -0.0 10.75
v -5.625 7.625 10.75
v 5.5625 7.5625 10.75
v 7.9375 7.625 10.75
v -7.9375 7.625 10.75
v -7.9375 7.625 -10.75
v 7.9375 7.625 -10.75

# 123 Texture Coordinates
vt 0.002823 0.258313
vt 0.002823 0.743256
vt 0.469005 0.743256
vt 0.002823 0.258313
vt 0.469005 0.743256
vt 0.465121 0.258313
vt 0.498142 0.743256
vt 0.498142 0.258313
vt 0.002823 0.258313
vt 0.498142 0.743256
vt 0.002823 0.258313
vt 0.002823 0.743256
vt 0.112045 0.075871
vt 0.112045 0.074697
vt 0.11322 0.074697
vt 0.112045 0.075871
vt 0.112045 0.074697
vt 0.11322 0.074697
vt 0.112045 0.075871
vt 0.112045 0.074697
vt 0.11322 0.074697
vt 0.112045 0.075871
vt 0.112045 0.074697
vt 0.11322 0.074697
vt 0.112045 0.075871
vt 0.112045 0.074697
vt 0.11322 0.074697
vt 0.112045 0.075871
vt 0.112045 0.074697
vt 0.11322 0.074697
vt 0.112045 0.075871
vt 0.112045 0.074697
vt 0.11322 0.074697
vt 0.112045 0.075871
vt 0.112045 0.074697
vt 0.11322 0.074697
vt 0.112045 0.075871
vt 0.112045 0.074697
vt 0.11322 0.074697
vt 0.112045 0.075871
vt 0.112045 0.074697
vt 0.11322 0.074697
vt 0.112045 0.075871
vt 0.112045 0.074697
vt 0.11322 0.074697
vt 0.112045 0.075871
vt 0.112045 0.074697
vt 0.11322 0.074697
vt 0.112045 0.075871
vt 0.112045 0.074697
vt 0.11322 0.074697
vt 0.112045 0.075871
vt 0.112045 0.074697
vt 0.11322 0.074697
vt 0.112045 0.075871
vt 0.112045 0.074697
vt 0.11322 0.074697
vt 0.112045 0.075871
vt 0.112045 0.074697
vt 0.11322 0.074697
vt 0.112045 0.075871
vt 0.112045 0.074697
vt 0.11322 0.074697
vt 0.112045 0.075871
vt 0.112045 0.074697
vt 0.11322 0.074697
vt 0.112045 0.075871
vt 0.112045 0.074697
vt 0.11322 0.074697
vt 0.112045 0.075871
vt 0.112045 0.074697
vt 0.11322 0.074697
vt 0.112045 0.075871
vt 0.112045 0.074697
vt 0.11322 0.074697
vt 0.112045 0.075871
vt 0.112045 0.074697
vt 0.11322 0.074697
vt 0.112045 0.075871
vt 0.112045 0.074697
vt 0.11322 0.074697
vt 0.112045 0.075871
vt 0.112045 0.074697
vt 0.11322 0.074697
vt 0.112045 0.075871
vt 0.112045 0.074697
vt 0.11322 0.074697
vt 0.112045 0.075871
vt 0.112045 0.074697
vt 0.11322 0.074697
vt 0.112045 0.075871
vt 0.112045 0.074697
vt 0.11322 0.074697
vt 0.112045 0.075871
vt 0.112045 0.074697
vt 0.11322 0.074697
vt 0.112045 0.075871
vt 0.112045 0.074697
vt 0.11322 0.074697
vt 0.112045 0.075871
vt 0.112045 0.074697
vt 0.11322 0.074697
vt 0.112045 0.075871
vt 0.112045 0.074697
vt 0.11322 0.074697
vt 0.112045 0.075871
vt 0.112045 0.074697
vt 0.11322 0.074697
vt 0.112045 0.075871
vt 0.112045 0.074697
vt 0.11322 0.074697
vt 0.112045 0.075871
vt 0.112045 0.074697
vt 0.11322 0.074697
vt 0.112045 0.075871
vt 0.112045 0.074697
vt 0.11322 0.074697
vt 0.112045 0.075871
vt 0.112045 0.074697
vt 0.11322 0.074697
vt 0.112045 0.075871
vt 0.112045 0.074697
vt 0.11322 0.074697

# 123 Vertex Normals
vn -0.277677 0.960674 0.0
vn -0.655132 0.755515 0.0
vn -0.655132 0.755515 0.0
vn -0.277677 0.960674 0.0
vn -0.655132 0.755515 0.0
vn 0.277677 0.960674 0.0
vn 0.655132 0.755515 0.0
vn -0.277677 0.960674 0.0
vn 0.277677 0.960674 0.0
vn 0.655132 0.755515 0.0
vn 0.277677 0.960674 0.0
vn 0.655132 0.755515 0.0
vn 0.0 0.0 -1.0
vn 0.0 0.0 -1.0
vn 0.0 0.0 -1.0
vn 0.0 0.0 -1.0
vn 0.0 0.0 -1.0
vn 0.0 0.0 -1.0
vn 1.0 0.0 0.0
vn 1.0 0.0 0.0
vn 1.0 0.0 0.0
vn 1.0 0.0 0.0
vn 1.0 0.0 0.0
vn 1.0 0.0 0.0
vn -1.0 0.0 0.0
vn -1.0 0.0 0.0
vn -1.0 0.0 0.0
vn -1.0 0.0 0.0
vn -1.0 0.0 0.0
vn -1.0 0.0 0.0
vn 0.0 0.0 1.0
vn 0.0 0.0 1.0
vn 0.0 0.0 1.0
vn 0.0 0.0 1.0
vn 0.0 0.0 1.0
vn 0.0 0.0 1.0
vn 0.0 0.0 1.0
vn 0.0 0.0 1.0
vn 0.0 0.0 1.0
vn 0.0 0.0 1.0
vn 0.0 0.0 1.0
vn 0.0 0.0 1.0
vn 0.0 0.0 1.0
vn 0.0 0.0 1.0
vn 0.0 0.0 1.0
vn 0.0 0.0 1.0
vn 0.0 0.0 1.0
vn 0.0 0.0 1.0
vn 0.0 0.0 1.0
vn 0.0 0.0 1.0
vn 0.0 0.0 1.0
vn 0.0 0.0 1.0
vn 0.0 0.0 1.0
vn 0.0 0.0 1.0
vn 1.0 0.0 0.0
vn 1.0 0.0 0.0
vn 1.0 0.0 0.0
vn 1.0 0.0 0.0
vn 1.0 0.0 0.0
vn 1.0 0.0 0.0
vn 0.0 0.0 1.0
vn 0.0 0.0 1.0
vn 0.0 0.0 1.0
vn 0.0 0.0 1.0
vn 0.0 0.0 1.0
vn 0.0 0.0 1.0
vn -1.0 0.0 0.0
vn -1.0 0.0 0.0
vn -1.0 0.0 0.0
vn -1.0 0.0 0.0
vn -1.0 0.0 0.0
vn -1.0 0.0 0.0
vn 0.0 0.0 -1.0
vn 0.0 0.0 -1.0
vn 0.0 0.0 -1.0
vn 0.0 0.0 -1.0
vn 0.0 0.0 -1.0
vn 0.0 0.0 -1.0
vn 0.0 0.0 1.0
vn 0.0 0.0 1.0
vn 0.0 0.0 1.0
vn 0.0 0.0 1.0
vn 0.0 0.0 1.0
vn 0.0 0.0 1.0
vn 1.0 0.0 0.0
vn 1.0 0.0 0.0
vn 1.0 0.0 0.0
vn 1.0 0.0 0.0
vn 1.0 0.0 0.0
vn 1.0 0.0 0.0
vn -1.0 0.0 0.0
vn -1.0 0.0 0.0
vn -1.0 0.0 0.0
vn -1.0 0.0 0.0
vn -1.0 0.0 0.0
vn -1.0 0.0 0.0
vn 0.0 0.0 1.0
vn 0.0 0.0 1.0
vn 0.0 0.0 1.0
vn 0.0 0.0 1.0
vn 0.0 0.0 1.0
vn 0.0 0.0 1.0
vn 0.0 0.0 1.0
vn 0.0 0.0 1.0
vn 0.0 0.0 1.0
vn 0.0 0.0 1.0
vn 0.0 0.0 1.0
vn 0.0 0.0 1.0
vn -1.0 0.0 0.0
vn -1.0 0.0 0.0
vn -1.0 0.0 0.0
vn -1.0 0.0 0.0
vn -1.0 0.0 0.0
vn -1.0 0.0 0.0
vn 1.0 0.0 0.0
vn 1.0 0.0 0.0
vn 1.0 0.0 0.0
vn 1.0 0.0 0.0
vn 1.0 0.0 0.0
vn 1.0 0.0 0.0
vn 0.0 0.0 -1.0
vn 0.0 0.0 -1.0
vn 0.0 0.0 -1.0

# default, 4 grouped triangles

usemtl color0
o default
g default

f 6/1/1 4/2/2 1/3/3
f 6/4/4 1/5/5 5/6/6
f 3/7/7 6/8/8 5/9/9
f 3/10/10 5/11/11 2/12/12
# 2, 37 grouped triangles

usemtl color0
o 2
g 2

f 25/13/13 10/14/14 9/15/15
f 25/16/16 9/17/17 24/18/18
f 22/19/19 7/20/20 10/21/21
f 22/22/22 10/23/23 25/24/24
f 24/25/25 9/26/26 8/27/27
f 24/28/28 8/29/29 23/30/30
f 21/31/31 16/32/32 7/33/33
f 21/34/34 7/35/35 22/36/36
f 17/37/37 15/38/38 13/39/39
f 17/40/40 13/41/41 5/42/42
f 18/43/43 17/44/44 5/45/45
f 18/46/46 5/47/47 14/48/48
f 23/49/49 8/50/50 19/51/51
f 23/52/52 19/53/53 20/54/54
f 24/55/55 12/56/56 14/57/57
f 24/58/58 14/59/59 23/60/60
f 25/61/61 11/62/62 12/63/63
f 25/64/64 12/65/65 24/66/66
f 22/67/67 13/68/68 11/69/69
f 22/70/70 11/71/71 25/72/72
f 25/73/73 24/74/74 12/75/75
f 25/76/76 12/77/77 11/78/78
f 10/79/79 25/80/80 24/81/81
f 10/82/82 24/83/83 9/84/84
f 22/85/85 25/86/86 11/87/87
f 22/88/88 11/89/89 13/90/90
f 7/91/91 22/92/92 25/93/93
f 7/94/94 25/95/95 10/96/96
f 21/97/97 22/98/98 13/99/99
f 21/100/100 13/101/101 15/102/102
f 23/103/103 20/104/104 18/105/105
f 23/106/106 18/107/107 14/108/108
f 24/109/109 23/110/110 14/111/111
f 24/112/112 14/113/113 12/114/114
f 9/115/115 24/116/116 23/117/117
f 9/118/118 23/119/119 8/120/120
f 12/121/121 6/122/122 11/123/123
