# Blender v2.79 (sub 0) OBJ File: ''
# www.blender.org
mtllib SUB_LAWN_MOWER.mtl
o SUB_LAWN_MOWER
v 1.518750 3.168750 -0.224999
v 0.000000 3.150000 -0.225000
v 0.000000 2.043750 -0.356250
v 1.537500 2.043750 -0.356250
v 0.000000 3.300000 -1.481249
v 1.537500 3.300000 -1.481249
v -1.537500 5.175001 -3.674999
v -1.162500 5.175001 -3.674999
v -1.162500 5.306251 -4.687499
v -1.518750 5.306251 -4.706249
v 1.537500 2.681250 -1.556250
v 0.018750 2.681250 -1.556250
v 1.425000 5.231251 -3.806249
v 1.818750 5.193751 -3.656249
v 1.837500 5.325001 -4.687499
v 1.462500 5.325001 -4.687499
v 1.518750 0.750000 -2.775000
v -1.500000 0.750000 -2.793750
v -1.518750 1.443751 -2.606250
v 1.518750 1.462501 -2.587500
v 1.518750 0.150000 -2.437500
v -1.500000 0.150000 -2.456250
v 1.518750 0.018750 -1.762500
v -1.500000 0.000000 -1.781250
v 1.518750 0.393750 -1.162500
v -1.518750 0.393750 -1.181250
v 1.518750 1.106250 -0.975000
v -1.518750 1.087500 -0.975000
v 1.518750 1.687500 -1.312500
v -1.518750 1.687500 -1.331250
v 1.518750 1.837500 -1.987500
v -1.518750 1.818750 -2.006250
v 1.518750 1.181250 0.487500
v -1.537500 1.162500 0.468750
v -1.537500 0.675000 0.656250
v 1.518750 0.675000 0.675000
v 1.518750 1.406250 0.018750
v -1.537500 1.387500 0.000000
v 1.518750 1.181250 -0.450000
v -1.537500 1.181250 -0.450000
v 1.537500 0.693750 -0.637500
v -1.537500 0.675000 -0.656250
v 1.537500 0.187500 -0.450000
v -1.518750 0.168750 -0.468750
v 1.537500 -0.018750 -0.000000
v -1.537500 -0.018750 -0.000000
v 1.518750 0.187500 0.487500
v -1.537500 0.168750 0.468750
v 1.537500 2.043750 -0.356250
v -1.537500 5.175001 -3.674999
v -1.162500 5.175001 -3.674999
v 1.425000 5.231251 -3.806249
v 1.818750 5.193751 -3.656249
v 1.125000 4.406250 -2.306249
v 1.143750 3.450001 -2.418750
v -0.787500 3.450001 -2.437500
v -0.787500 4.406250 -2.324999
v -0.281250 4.537501 -2.437499
v 0.618750 4.518751 -2.399999
v 1.312500 2.306250 -1.068750
v 1.537500 2.287500 -1.068750
v -0.787500 3.318750 -1.331249
v -0.787500 4.275000 -1.218749
v 1.125000 4.275000 -1.199999
v 1.125000 3.337500 -1.312499
v -1.518750 2.287500 -1.068750
v -1.200000 2.212500 -1.125000
v -1.518750 2.043750 -0.375000
v -1.518750 1.631250 -0.412500
v 1.500000 1.650000 -0.393750
v -1.650000 0.993750 -2.212500
v -1.650000 0.581250 0.000000
v 1.631250 1.012500 -2.193750
v 1.631250 0.600000 0.000000
v 0.637500 1.125000 -0.562500
v 0.806250 1.368750 -0.468750
v 0.937500 1.012500 -0.600000
v -0.468750 0.825000 -0.675000
v -0.356250 1.143750 -0.562500
v -0.168750 0.787500 -0.693750
v 0.131250 -0.075000 -0.375000
v 0.356250 0.093750 -0.487500
v 0.450000 -0.112500 -0.356250
v -1.331250 0.112500 -0.506250
v -1.237500 0.375000 -0.656250
v -1.087500 0.131250 -0.506250
v -0.693750 -0.487500 0.318750
v -0.543750 -0.375000 0.112500
v -0.375000 -0.506250 0.375000
v 0.750000 -0.468750 0.300000
v 0.956250 -0.356250 0.093750
v 1.087500 -0.468750 0.300000
v 0.393750 2.062500 1.237500
v 0.675000 2.043750 0.881250
v 0.337500 2.043750 0.881250
v -0.581250 2.043750 0.731250
v -0.412500 2.043750 0.431250
v -0.693750 2.043750 0.431250
v 0.431250 1.931250 0.168750
v 0.618750 1.818750 -0.037500
v 0.337500 1.781250 -0.093750
v -0.412500 1.818750 -0.018750
v -0.225000 1.725000 -0.243750
v -0.581250 1.687500 -0.300000
v -1.181250 1.837500 1.668750
v -1.050000 1.931250 1.500000
v -1.200000 2.006250 1.387500
v 1.575000 1.312500 2.043750
v 1.500000 1.687500 1.893750
v 1.181250 1.612500 1.931250
v 0.356250 0.787500 2.212500
v 0.581250 1.031250 2.156250
v 0.262500 1.050000 2.156250
v -0.506250 0.806250 2.193750
v -0.356250 1.068750 2.137500
v -0.600000 1.068750 2.137500
v 0.037500 0.056250 2.081250
v 0.262500 0.375000 2.156250
v -0.093750 0.393750 2.175000
v -1.087500 -0.000000 2.006250
v -0.825000 0.337500 2.118750
v -1.106250 0.393750 2.175000
v 1.181250 -0.600000 1.425000
v 1.087500 -0.243750 1.762500
v 0.750000 -0.281250 1.725000
v -0.187500 -0.637500 0.918750
v 0.000000 -0.562500 1.331250
v -0.412500 -0.562500 1.331250
vt 0.535506 0.487581
vt 0.464023 0.490502
vt 0.367254 0.346515
vt 0.621448 0.385916
vt 0.468965 0.549360
vt 0.540325 0.553123
vt 0.665731 0.552925
vt 0.628520 0.552925
vt 0.628520 0.451614
vt 0.663872 0.449769
vt 0.628439 0.608591
vt 0.367254 0.644444
vt 0.667902 0.435160
vt 0.628520 0.449688
vt 0.628520 0.346515
vt 0.665726 0.347168
vt 0.482939 0.458499
vt 0.559618 0.458499
vt 0.559618 0.535178
vt 0.482939 0.535178
vt 0.482939 0.458499
vt 0.559618 0.458499
vt 0.559618 0.535178
vt 0.482939 0.535178
vt 0.482939 0.458499
vt 0.559618 0.458499
vt 0.559618 0.535178
vt 0.482939 0.535178
vt 0.482939 0.458499
vt 0.559618 0.458499
vt 0.559618 0.535178
vt 0.482939 0.535178
vt 0.482939 0.458499
vt 0.559618 0.458499
vt 0.559618 0.535178
vt 0.482939 0.535178
vt 0.482939 0.458499
vt 0.559618 0.458499
vt 0.559618 0.535178
vt 0.482939 0.535178
vt 0.482939 0.458499
vt 0.559618 0.458499
vt 0.559618 0.535178
vt 0.482939 0.535178
vt 0.482939 0.458499
vt 0.559618 0.458499
vt 0.559618 0.535178
vt 0.482939 0.535178
vt 0.482939 0.458499
vt 0.482939 0.535178
vt 0.482939 0.458499
vt 0.482939 0.535178
vt 0.559618 0.458499
vt 0.559618 0.535178
vt 0.559618 0.458499
vt 0.559618 0.535178
vt 0.482939 0.458499
vt 0.559618 0.458499
vt 0.559618 0.535178
vt 0.482939 0.535178
vt 0.482939 0.458499
vt 0.559618 0.458499
vt 0.559618 0.535178
vt 0.482939 0.535178
vt 0.482939 0.458499
vt 0.559618 0.458499
vt 0.559618 0.535178
vt 0.482939 0.535178
vt 0.482939 0.458499
vt 0.559618 0.458499
vt 0.559618 0.535178
vt 0.482939 0.535178
vt 0.482939 0.458499
vt 0.559618 0.458499
vt 0.559618 0.535178
vt 0.482939 0.535178
vt 0.482939 0.458499
vt 0.559618 0.458499
vt 0.559618 0.535178
vt 0.482939 0.535178
vt 0.482939 0.458499
vt 0.559618 0.458499
vt 0.559618 0.535178
vt 0.482939 0.535178
vt 0.482939 0.458499
vt 0.559618 0.458499
vt 0.559618 0.535178
vt 0.482939 0.535178
vt 0.559618 0.458499
vt 0.559618 0.535178
vt 0.559618 0.458499
vt 0.559618 0.535178
vt 0.482939 0.458499
vt 0.482939 0.535178
vt 0.482939 0.458499
vt 0.482939 0.535178
vt 0.482939 0.458499
vt 0.482939 0.458499
vt 0.559618 0.458499
vt 0.559618 0.535178
vt 0.559618 0.535178
vt 0.559618 0.458499
vt 0.559618 0.535178
vt 0.482939 0.458499
vt 0.482939 0.458499
vt 0.129351 0.387044
vt 0.177069 0.433779
vt 0.023453 0.433446
vt 0.103779 0.382838
vt 0.269273 0.318259
vt 0.233564 0.391356
vt 0.209579 0.383536
vt 0.251589 0.318177
vt 0.321979 0.394652
vt 0.280046 0.513563
vt 0.269398 0.513512
vt 0.297628 0.399623
vt 0.057274 0.318177
vt 0.104664 0.364705
vt 0.130246 0.368735
vt 0.209454 0.318177
vt 0.269273 0.507146
vt 0.253734 0.509157
vt 0.157084 0.457311
vt 0.038226 0.465965
vt 0.026429 0.448913
vt 0.168456 0.433905
vt 0.023453 0.497699
vt 0.180288 0.497699
vt 0.269398 0.324086
vt 0.288452 0.318177
vt 0.023453 0.497824
vt 0.105123 0.497824
vt 0.050746 0.588973
vt 0.105248 0.497824
vt 0.185557 0.497824
vt 0.131778 0.588317
vt 0.871540 0.536580
vt 0.871540 0.593789
vt 0.813341 0.548230
vt 0.869788 0.346213
vt 0.935335 0.346213
vt 0.879956 0.401011
vt 0.871747 0.627474
vt 0.907963 0.585110
vt 0.930900 0.627474
vt 0.930703 0.536580
vt 0.988943 0.536580
vt 0.946847 0.578564
vt 0.761622 0.557700
vt 0.807107 0.534008
vt 0.807107 0.596296
vt 0.894895 0.529755
vt 0.932843 0.486529
vt 0.956992 0.529755
vt 0.761415 0.541298
vt 0.700076 0.484521
vt 0.761415 0.474849
vt 0.810075 0.533800
vt 0.761622 0.493019
vt 0.810075 0.474849
vt 0.748263 0.541506
vt 0.748263 0.596811
vt 0.700076 0.574215
vt 0.938722 0.423561
vt 0.938722 0.480143
vt 0.879277 0.449854
vt 0.961705 0.406659
vt 0.935542 0.372596
vt 0.961705 0.346213
vt 0.869581 0.346213
vt 0.811985 0.395156
vt 0.776180 0.346213
vt 0.891803 0.536580
vt 0.930496 0.584903
vt 0.871747 0.584903
vt 0.931107 0.627451
vt 0.968641 0.585110
vt 0.983427 0.627451
vt 0.841588 0.423561
vt 0.879069 0.486321
vt 0.813341 0.486321
vt 0.813341 0.486529
vt 0.894687 0.486529
vt 0.874497 0.536373
vt 0.813134 0.423561
vt 0.736709 0.474642
vt 0.700076 0.423561
vt 0.741474 0.346213
vt 0.775972 0.423354
vt 0.700076 0.423354
vn 0.0007 -0.1168 0.9932
vn -0.0061 0.9938 0.1112
vn -0.0033 0.9919 0.1274
vn 0.9999 0.0095 0.0106
vn 0.0000 0.1203 -0.9927
vn -0.9999 -0.0096 -0.0107
vn 0.0255 0.9927 0.1175
vn 0.0052 0.2577 -0.9662
vn 0.0054 -0.4903 -0.8716
vn 0.0043 -0.9790 -0.2040
vn -0.0007 -0.8420 0.5394
vn -0.0021 -0.2696 0.9630
vn -0.0042 0.5064 0.8623
vn -0.0043 0.9790 0.2040
vn -0.0020 0.8480 -0.5300
vn -0.9999 -0.0093 -0.0068
vn -0.9999 -0.0094 -0.0068
vn 1.0000 -0.0000 0.0000
vn -0.0068 0.3530 0.9356
vn -0.0082 0.9015 0.4327
vn -0.0015 0.9052 -0.4249
vn 0.0017 0.3684 -0.9297
vn 0.0079 -0.3472 -0.9378
vn 0.0040 -0.9192 -0.3938
vn 0.0017 -0.9247 0.3808
vn -0.0047 -0.3531 0.9356
vn 0.9999 0.0155 -0.0003
vn 0.9998 0.0076 0.0198
vn -1.0000 0.0000 0.0000
vn -0.9998 -0.0076 -0.0202
vn -0.9993 -0.0325 0.0203
vn -0.9992 0.0115 -0.0388
vn 0.9985 0.0188 0.0509
vn -0.9987 -0.0194 0.0476
vn 0.0097 0.1169 -0.9931
vn -0.0633 0.8596 0.5071
vn -0.0197 0.5063 0.8621
vn -0.0092 -0.1180 0.9930
vn 0.9999 0.0088 0.0094
vn 0.1489 0.4528 0.8791
vn -0.0059 -0.0924 0.9957
vn -0.0010 0.9448 0.3275
vn -0.0012 0.9930 0.1178
vn 0.0147 0.8749 0.4841
vn -0.9961 0.0868 0.0162
vn 0.9953 -0.0918 -0.0314
vn -0.9979 -0.0629 -0.0118
vn 0.0143 0.3503 -0.9365
vn -0.0166 0.3380 -0.9410
vn -0.0142 -0.5414 -0.8406
vn 0.0389 -0.5062 -0.8615
vn 0.0294 -0.8864 -0.4621
vn 0.0000 -0.8779 -0.4789
vn 0.0000 0.9986 -0.0526
vn 0.0000 1.0000 0.0000
vn -0.0179 0.8708 -0.4912
vn -0.0318 0.9129 -0.4069
vn 0.0452 0.8579 0.5118
vn 0.0208 0.3749 0.9268
vn 0.0126 0.2138 0.9768
vn 0.0000 0.2095 0.9778
vn 0.0375 -0.2539 0.9665
vn 0.1057 -0.3875 0.9158
vn -0.0041 -0.6883 0.7254
vn 0.0000 -0.9839 0.1789
usemtl lawn_mower_colors
s off
f 1/1/1 2/2/1 3/3/1 4/4/1
f 5/5/2 2/2/2 1/1/2 6/6/2
f 7/7/3 8/8/3 9/9/3 10/10/3
f 4/4/4 11/11/4 6/6/4 1/1/4
f 6/6/5 11/11/5 12/12/5 5/5/5
f 3/3/6 2/2/6 5/5/6 12/12/6
f 13/13/7 14/14/7 15/15/7 16/16/7
f 17/17/8 18/18/8 19/19/8 20/20/8
f 21/21/9 22/22/9 18/23/9 17/24/9
f 23/25/10 24/26/10 22/27/10 21/28/10
f 25/29/11 26/30/11 24/31/11 23/32/11
f 27/33/12 28/34/12 26/35/12 25/36/12
f 29/37/13 30/38/13 28/39/13 27/40/13
f 31/41/14 32/42/14 30/43/14 29/44/14
f 20/45/15 19/46/15 32/47/15 31/48/15
f 30/49/16 22/22/16 24/31/16 28/50/16
f 32/51/17 18/18/17 22/27/17 30/52/17
f 29/37/18 27/53/18 23/54/18 21/28/18
f 17/17/18 31/55/18 29/56/18 21/28/18
f 33/57/19 34/58/19 35/59/19 36/60/19
f 37/61/20 38/62/20 34/63/20 33/64/20
f 39/65/21 40/66/21 38/67/21 37/68/21
f 41/69/22 42/70/22 40/71/22 39/72/22
f 43/73/23 44/74/23 42/75/23 41/76/23
f 45/77/24 46/78/24 44/79/24 43/80/24
f 47/81/25 48/82/25 46/83/25 45/84/25
f 36/85/26 35/86/26 48/87/26 47/88/26
f 37/61/27 45/89/27 43/90/27 39/72/27
f 33/57/28 47/91/28 45/92/28 37/68/28
f 34/93/29 38/62/29 46/83/29 48/94/29
f 38/95/30 40/66/30 44/79/30 46/96/30
f 19/97/31 18/18/31 32/47/31
f 24/98/32 26/30/32 28/39/32
f 27/33/18 25/99/18 23/54/18
f 20/45/18 31/55/18 17/100/18
f 36/85/18 47/91/18 33/101/18
f 43/73/33 41/102/33 39/103/33
f 40/104/34 42/70/34 44/79/34
f 35/105/29 34/58/29 48/87/29
f 54/106/35 55/107/35 56/108/35 57/109/35
f 50/110/36 57/111/36 58/112/36 51/113/36
f 59/114/37 60/115/37 61/116/37 54/117/37
f 62/118/29 63/119/29 57/109/29 56/108/29
f 64/120/38 63/119/38 62/118/38 65/121/38
f 65/121/39 55/107/39 54/106/39 64/120/39
f 57/111/40 66/122/40 67/123/40 58/112/40
f 49/124/41 68/125/41 69/126/41 70/127/41
f 66/128/42 68/125/42 49/124/42 61/129/42
f 57/109/43 63/119/43 64/120/43 54/106/43
f 53/130/44 52/131/44 59/114/44 54/117/44
f 66/132/45 71/133/45 72/134/45
f 70/127/46 61/129/46 49/124/46
f 69/126/29 68/125/29 66/128/29
f 61/135/47 73/136/47 74/137/47
f 75/138/48 76/139/48 77/140/48
f 78/141/49 79/142/49 80/143/49
f 81/144/50 82/145/50 83/146/50
f 84/147/51 85/148/51 86/149/51
f 87/150/52 88/151/52 89/152/52
f 90/153/53 91/154/53 92/155/53
f 93/156/54 94/157/54 95/158/54
f 96/159/55 97/160/55 98/161/55
f 99/162/56 100/163/56 101/164/56
f 102/165/57 103/166/57 104/167/57
f 105/168/58 106/169/58 107/170/58
f 108/171/59 109/172/59 110/173/59
f 111/174/60 112/175/60 113/176/60
f 114/177/61 115/178/61 116/179/61
f 117/180/62 118/181/62 119/182/62
f 120/183/63 121/184/63 122/185/63
f 123/186/64 124/187/64 125/188/64
f 126/189/65 127/190/65 128/191/65
