# Blender v2.79 (sub 0) OBJ File: ''
# www.blender.org
mtllib snake.mtl
o body
v -0.312500 0.312504 -12.125000
v -2.000000 0.625002 -7.312500
v -0.937500 0.625002 -7.062500
v -0.625000 0.312502 -7.000000
v -2.312500 0.312502 -7.437500
v -2.000000 0.000002 -7.312500
v -0.937500 0.000002 -7.062500
v -0.937500 0.312502 -3.687500
v -0.187500 0.312500 -0.562500
v -0.437500 0.000000 -0.500000
v -1.250000 0.000002 -3.687500
v -1.250000 0.625002 -3.687500
v -0.437500 0.625000 -0.500000
v -2.750000 0.625002 -3.625000
v -2.000000 0.625000 0.187500
v -3.062500 0.312502 -3.625000
v -2.312500 0.312500 0.187500
v -2.750000 0.000002 -3.625000
v -2.000000 -0.000000 0.187500
v -0.250000 -0.000000 3.000000
v -0.562500 0.312498 3.062500
v 1.437500 0.312500 2.500000
v 1.125000 -0.000000 2.562500
v 2.625000 0.312498 8.875000
v 1.875000 0.624998 8.687500
v 0.812500 0.624996 10.500000
v 1.062500 0.312496 10.937500
v 0.812500 -0.000004 10.500000
v -0.500000 0.249996 10.625000
v 0.000000 -0.000004 10.375000
v 1.875000 -0.000002 8.687500
v 1.875000 -0.000002 5.750000
v 2.187500 0.312498 5.625000
v -0.187500 0.624998 8.250000
v -0.750000 0.374998 8.125000
v 0.000000 0.624996 10.375000
v -0.125000 -0.062502 8.250000
v 0.687500 0.624998 5.687500
v 0.375000 0.312498 5.750000
v 0.687500 -0.000002 5.687500
v 1.875000 0.624998 5.750000
v -0.250000 0.625000 3.000000
v 1.125000 0.625000 2.562500
vt 0.364706 0.772549
vt 0.568627 0.615686
vt 0.270588 0.615686
vt 0.184314 0.615686
vt 0.654902 0.615686
vt 0.568627 0.615686
vt 0.270588 0.615686
vt 0.152941 0.501961
vt 0.141176 0.388235
vt 0.207843 0.388235
vt 0.235294 0.501961
vt 0.235294 0.501961
vt 0.207843 0.388235
vt 0.639216 0.505882
vt 0.682353 0.392157
vt 0.721569 0.505882
vt 0.749020 0.396078
vt 0.639216 0.505882
vt 0.682353 0.392157
vt 0.658824 0.286275
vt 0.745098 0.290196
vt 0.160784 0.282353
vt 0.247059 0.282353
vt 0.000000 0.101961
vt 0.125490 0.101961
vt 0.301961 0.039216
vt 0.200000 0.031373
vt 0.301961 0.043137
vt 0.650980 0.031373
vt 0.517647 0.043137
vt 0.125490 0.101961
vt 0.286275 0.188235
vt 0.203922 0.192157
vt 0.701961 0.101961
vt 0.870588 0.101961
vt 0.517647 0.039216
vt 0.701961 0.101961
vt 0.607843 0.192157
vt 0.690196 0.188235
vt 0.607843 0.192157
vt 0.286275 0.188235
vt 0.658824 0.286275
vt 0.745098 0.286275
vt 0.690196 0.192157
vt 0.247059 0.282353
vt 0.239216 0.501961
vt 0.239216 0.501961
vn 0.0141 0.9981 -0.0599
vn 0.7022 0.7107 0.0428
vn -0.6259 0.7327 -0.2671
vn -0.6259 -0.7327 -0.2671
vn 0.7022 -0.7107 0.0428
vn 0.7224 -0.6680 -0.1788
vn 0.7224 0.6680 -0.1788
vn 0.0000 1.0000 0.0000
vn -0.7004 0.7004 0.1378
vn -0.7004 -0.7004 0.1378
vn -0.6318 -0.6706 0.3888
vn 0.6624 -0.6651 -0.3447
vn 0.3879 0.8834 0.2628
vn -0.0917 -0.7868 0.6104
vn 0.3879 -0.8834 0.2628
vn 0.5083 -0.8605 -0.0359
vn -0.4996 0.8634 0.0706
vn -0.5187 -0.8544 0.0305
vn -0.5164 0.8277 -0.2197
vn -0.5977 -0.7667 -0.2345
vn -0.1431 0.7254 0.6733
vn 0.5083 0.8605 -0.0359
vn -0.6643 0.7106 0.2317
vn 0.6736 -0.7216 -0.1601
vn -0.6643 -0.7106 0.2317
vn 0.6736 0.7216 -0.1601
vn -0.6865 0.7140 -0.1373
vn -0.6865 -0.7140 -0.1373
vn 0.7023 -0.7089 0.0656
vn 0.7023 0.7089 0.0656
vn 0.6624 0.6651 -0.3447
vn -0.6318 0.6706 0.3888
usemtl tex348
s 1
f 1/1/1 2/2/1 3/3/1
f 1/1/2 3/3/2 4/4/2
f 1/1/3 5/5/3 2/2/3
f 1/1/4 6/6/4 5/5/4
f 1/1/5 4/4/5 7/7/5
f 8/8/6 9/9/6 10/10/6 11/11/6
f 12/12/7 13/13/7 9/9/7 8/8/7
f 14/14/8 15/15/8 13/13/8 12/12/8
f 16/16/9 17/17/9 15/15/9 14/14/9
f 16/16/10 18/18/10 19/19/10 17/17/10
f 17/17/11 19/19/11 20/20/11 21/21/11
f 10/10/12 9/9/12 22/22/12 23/23/12
f 24/24/13 25/25/13 26/26/13 27/27/13
f 28/28/14 27/27/14 29/29/14 30/30/14
f 31/31/15 24/24/15 27/27/15 28/28/15
f 32/32/16 33/33/16 24/24/16 31/31/16
f 34/34/17 35/35/17 29/29/17 36/36/17
f 35/35/18 37/37/18 30/30/18 29/29/18
f 25/25/8 34/34/8 36/36/8 26/26/8
f 38/38/19 39/39/19 35/35/19 34/34/19
f 39/39/20 40/40/20 37/37/20 35/35/20
f 26/26/21 36/36/21 29/29/21 27/27/21
f 41/41/8 38/38/8 34/34/8 25/25/8
f 33/33/22 41/41/22 25/25/22 24/24/22
f 42/42/23 21/43/23 39/44/23 38/38/23
f 23/23/24 22/22/24 33/33/24 32/32/24
f 21/43/25 20/20/25 40/40/25 39/44/25
f 22/22/26 43/45/26 41/41/26 33/33/26
f 43/45/8 42/42/8 38/38/8 41/41/8
f 2/2/27 5/5/27 16/16/27 14/14/27
f 5/5/28 6/6/28 18/18/28 16/16/28
f 7/7/29 4/4/29 8/8/29 11/46/29
f 4/4/30 3/3/30 12/47/30 8/8/30
f 3/3/8 2/2/8 14/14/8 12/47/8
f 9/9/31 13/13/31 43/45/31 22/22/31
f 15/15/32 17/17/32 21/21/32 42/42/32
f 13/13/8 15/15/8 42/42/8 43/45/8
o tongue
v -0.687500 0.249996 12.250000
v -0.312500 0.249996 12.625000
v 0.250000 0.249996 10.812500
v 0.187500 0.249996 12.750000
v 0.750000 0.249996 12.500000
vt 0.622212 0.687075
vt 0.493392 0.754875
vt 0.493392 0.233945
vt 0.493283 0.766055
vt 0.341173 0.692489
vt 0.493283 0.233945
vn -0.0000 1.0000 0.0000
usemtl snake_colors
s 1
f 44/48/33 45/49/33 46/50/33
f 47/51/33 48/52/33 46/53/33
