# Blender v2.79 (sub 0) OBJ File: ''
# www.blender.org
mtllib helicopter.mtl
o SKY_HELICOPTER
v -5.156250 6.637500 2.868751
v -4.106250 6.637500 4.050001
v 0.000000 6.637500 -1.031249
v 4.068750 6.637500 4.087501
v 5.193750 6.637500 2.887501
v -4.312500 6.637501 -6.074999
v -5.343750 6.637501 -4.781249
v 5.062500 6.637501 -5.099999
v 3.993750 6.637501 -6.206249
v 1.575000 4.518751 -2.118749
v 2.156250 4.406250 -1.687499
v 2.175000 4.050001 -2.981249
v 1.743750 4.312500 -2.981249
v 1.256250 3.787500 -2.118749
v 1.462500 3.843751 -2.981249
v 1.931250 3.375000 -2.118750
v 1.893750 3.581251 -2.981250
v 1.650000 4.575000 -0.918749
v 1.425000 4.706251 -1.724999
v 1.387500 4.031250 -1.781249
v 1.912500 3.768750 -0.974999
v 0.712500 3.337501 -6.768750
v 0.712500 3.206251 -7.312500
v 0.693750 4.837502 -8.662499
v 0.693750 3.300002 -10.518749
v 0.693750 3.187502 -9.956249
v 0.712500 6.356251 -6.768749
v 0.712500 6.487501 -7.312500
v 0.693750 6.393752 -10.518749
v 0.693750 6.506252 -9.956249
v 1.256250 1.875000 1.893750
v 0.206250 1.462500 1.912500
v -0.300000 5.381250 0.000001
v 0.262500 5.400000 0.000001
v -0.243750 1.481250 1.912500
v -1.218750 1.875000 1.912500
v 2.343750 2.756250 0.000000
v 1.668750 2.775000 2.006251
v -0.262500 4.706250 2.025001
v 0.243750 4.725000 2.006251
v -0.225000 2.775000 2.737501
v 0.281250 2.775000 2.718750
v 1.668750 4.818750 0.000001
v -1.650000 4.818750 0.000001
v -2.343750 2.775000 0.000000
v -1.631250 2.775000 2.025001
v 1.181250 4.331250 2.006251
v -1.143750 4.331250 2.025001
v -5.831250 6.637500 3.506251
v -4.743750 6.637499 4.687501
v -5.006250 6.637501 -6.637499
v -5.943750 6.637501 -5.437499
v 5.643750 6.637501 -5.643749
v 4.575000 6.637501 -6.768749
v 4.612500 6.637499 4.593751
v 5.700000 6.637500 3.487501
v 1.425000 4.706251 -1.724999
v 0.975000 1.931250 -1.725000
v 1.650000 1.500000 0.000000
v 0.000000 1.575000 -1.931250
v -1.650000 1.500000 0.000000
v -0.787500 1.818750 -1.762500
v 1.256250 1.875000 1.893750
v 0.206250 1.462500 1.912500
v 0.000000 3.150001 -2.737500
v -0.300000 5.381250 0.000001
v 0.262500 5.400000 0.000001
v 0.000000 5.381251 -1.931249
v 2.006250 3.150000 -1.931250
v -1.462500 4.725001 -1.912499
v -2.006250 3.168750 -1.912500
v -0.243750 1.481250 1.912500
v -1.218750 1.875000 1.912500
v 0.243750 5.081252 -8.568749
v 0.637500 5.081252 -8.568749
v 0.637500 4.931252 -8.887500
v 0.225000 4.931252 -8.887500
v 0.637500 4.593751 -8.737499
v 0.243750 4.593751 -8.737499
v 0.637500 4.762502 -8.400000
v 0.243750 4.762502 -8.400000
v 2.006250 -0.112500 3.037500
v 2.475000 -0.131251 3.018750
v 2.418750 -0.131250 -3.056250
v 1.950000 -0.112500 -3.037500
v 0.806250 1.481250 1.087500
v 2.006250 -0.131250 2.156250
v 2.006250 -0.131250 1.668750
v 0.806250 1.387500 0.806250
v -0.393750 3.543751 -2.512500
v 0.375000 3.543751 -2.512500
v 0.168750 3.375001 -7.668750
v -0.262500 3.375001 -7.668750
v -0.412500 2.737501 -2.512500
v -0.262500 2.925002 -8.193750
v 0.168750 4.518752 -8.887500
v 0.168750 5.418752 -8.662499
v 0.168750 2.925002 -8.193750
v 0.375000 2.737501 -2.512500
v -0.262500 5.418752 -8.662499
v -0.262500 4.518752 -8.887500
v 2.343750 2.756250 0.000000
v 1.668750 2.775000 2.006251
v -0.768750 1.368750 0.806250
v -1.931250 -0.112500 1.687500
v -1.931250 -0.112500 2.193750
v -0.750000 1.481250 1.106250
v 0.993750 1.818750 -1.443750
v 1.987500 -0.131250 -1.462500
v 1.987500 -0.131250 -1.968750
v -2.400000 -0.112501 3.056250
v -1.931250 -0.112501 3.056250
v -1.987500 -0.112500 -3.018750
v -2.437500 -0.112500 -3.018750
v 0.281250 6.618750 -0.712499
v -0.262500 6.618750 -0.712499
v -0.262500 5.418750 -0.712499
v 0.281250 5.418750 -0.712499
v -0.262500 6.618750 -1.274999
v -0.262500 5.418750 -1.274999
v 0.281250 6.618750 -1.274999
v 0.281250 5.418750 -1.274999
v -0.262500 4.706250 2.025001
v 0.243750 4.725000 2.006251
v -0.225000 2.775000 2.737501
v 0.281250 2.775000 2.718750
v -1.950000 -0.112500 -1.931250
v -1.950000 -0.112500 -1.443750
v -0.768750 1.706250 -1.462500
v 1.668750 4.818750 0.000001
v -1.650000 4.818750 0.000001
v -2.343750 2.775000 0.000000
v -1.631250 2.775000 2.025001
vt 0.043472 0.285905
vt 0.043472 0.200422
vt 0.392054 0.258281
vt 0.043472 0.162737
vt 0.393373 0.111272
vt 0.393373 0.200238
vt 0.396565 0.021769
vt 0.048933 0.111087
vt 0.043472 0.021769
vt 0.396750 0.033820
vt 0.479068 0.021769
vt 0.479068 0.375328
vt 0.043379 0.021677
vt 0.479160 0.021677
vt 0.479160 0.457457
vt 0.043379 0.457457
vt 0.043379 0.021677
vt 0.479160 0.021677
vt 0.479160 0.457457
vt 0.043379 0.457457
vt 0.043379 0.021677
vt 0.479160 0.021677
vt 0.479160 0.457457
vt 0.043379 0.457457
vt 0.043379 0.021677
vt 0.479160 0.021677
vt 0.479160 0.457457
vt 0.043379 0.457457
vt 0.043379 0.021677
vt 0.479160 0.021677
vt 0.043379 0.021677
vt 0.479160 0.021677
vt 0.479160 0.457457
vt 0.043379 0.457457
vt 0.043379 0.021677
vt 0.479160 0.021677
vt 0.479160 0.457457
vt 0.043379 0.457457
vt 0.043379 0.021677
vt 0.479160 0.457457
vt 0.043379 0.457457
vt 0.043379 0.021677
vt 0.479160 0.021677
vt 0.479160 0.457457
vt 0.043379 0.457457
vt 0.479160 0.021677
vt 0.479160 0.457457
vt 0.043379 0.457457
vt 0.140091 0.416758
vt 0.116265 0.398113
vt 0.140091 0.286089
vt 0.091988 0.286089
vt 0.116081 0.305638
vt 0.091988 0.416455
vt 0.091803 0.417390
vt 0.067865 0.398889
vt 0.091803 0.286089
vt 0.043472 0.286089
vt 0.067681 0.305494
vt 0.043472 0.417104
vt 0.155208 0.609277
vt 0.115739 0.565787
vt 0.193727 0.530238
vt 0.115739 0.898967
vt 0.149810 0.854921
vt 0.198319 0.927347
vt 0.230710 0.833192
vt 0.304265 0.530238
vt 0.283176 0.575154
vt 0.119369 0.961918
vt 0.210363 0.616702
vt 0.280094 0.851442
vt 0.237560 0.722686
vt 0.115739 0.741232
vt 0.322791 0.742672
vt 0.411137 0.578970
vt 0.366259 0.650119
vt 0.267414 0.722594
vt 0.717266 0.052355
vt 0.713913 0.244396
vt 0.606251 0.238063
vt 0.606251 0.049002
vt 0.824215 0.049002
vt 0.822436 0.231156
vt 0.717378 0.247806
vt 0.717378 0.049892
vt 0.701461 0.429401
vt 0.606251 0.430132
vt 0.606251 0.244509
vt 0.703006 0.245403
vt 0.828726 0.245462
vt 0.824328 0.059945
vt 0.917598 0.049002
vt 0.917598 0.245769
vt 0.665000 0.639990
vt 0.610859 0.631323
vt 0.687988 0.616566
vt 0.760478 0.591538
vt 0.713314 0.623315
vt 0.544159 0.632858
vt 0.538232 0.595115
vt 0.699140 0.661472
vt 0.737272 0.751489
vt 0.715267 0.757794
vt 0.709561 0.698589
vt 0.682487 0.699376
vt 0.662724 0.675442
vt 0.731027 0.684041
vt 0.738064 0.655572
vt 0.804981 0.525705
vt 0.818406 0.558242
vt 0.876210 0.818467
vt 0.868525 0.832708
vt 0.865188 0.831217
vt 0.855965 0.821687
vt 0.861510 0.832109
vt 0.852613 0.842632
vt 0.864983 0.833525
vt 0.876210 0.842563
vt 0.924723 0.697071
vt 0.911517 0.696665
vt 0.911517 0.525705
vt 0.924723 0.526111
vt 0.852452 0.820345
vt 0.852452 0.884407
vt 0.840339 0.877966
vt 0.844323 0.818467
vt 0.887129 0.737073
vt 0.864289 0.735025
vt 0.885730 0.575094
vt 0.896508 0.575854
vt 0.911356 0.738062
vt 0.911356 0.525705
vt 0.896979 0.569834
vt 0.893389 0.560327
vt 0.879833 0.529897
vt 0.840339 0.731282
vt 0.891520 0.559443
vt 0.885642 0.568429
vt 0.608574 0.679863
vt 0.538232 0.666073
vt 0.904909 0.818306
vt 0.846406 0.818306
vt 0.840339 0.805417
vt 0.903881 0.809333
vt 0.903136 0.785455
vt 0.841830 0.791376
vt 0.840339 0.777208
vt 0.905358 0.777208
vt 0.938074 0.696662
vt 0.924884 0.696744
vt 0.925411 0.525784
vt 0.938074 0.525705
vt 0.941980 0.753028
vt 0.985876 0.777047
vt 0.840339 0.738223
vt 0.865883 0.745341
vt 0.935416 0.777047
vt 0.866229 0.745679
vt 0.922625 0.760431
vt 0.872696 0.747112
vt 0.760600 0.835124
vt 0.740586 0.840080
vt 0.783104 0.915778
vt 0.763288 0.921422
vt 0.799764 0.975923
vt 0.782227 0.981216
vt 0.903790 0.800765
vt 0.840339 0.805256
vt 0.840339 0.791537
vt 0.901367 0.792065
vt 0.654501 0.743762
vt 0.779339 0.710320
vt 0.787236 0.632094
vt 0.840178 0.583509
vn -0.0000 1.0000 0.0000
vn 0.4129 0.8894 -0.1961
vn -0.8710 0.4355 -0.2272
vn -0.5125 -0.8400 -0.1780
vn 0.9461 -0.3234 0.0143
vn 0.0000 0.0000 -1.0000
vn -0.9089 -0.1671 0.3820
vn 0.3816 0.9219 -0.0671
vn -0.9535 0.2484 -0.1709
vn -0.6262 -0.6978 0.3479
vn 0.9587 -0.0545 0.2792
vn 1.0000 0.0096 -0.0023
vn -1.0000 0.0000 0.0000
vn -1.0000 0.0095 0.0023
vn 1.0000 0.0000 0.0000
vn -0.2113 -0.5233 0.8255
vn 0.4350 -0.3053 0.8471
vn 0.4522 0.1417 0.8806
vn -0.1447 0.3400 0.9292
vn 0.2189 -0.5198 0.8258
vn -0.4306 -0.3036 0.8499
vn 0.1437 0.3421 0.9286
vn -0.4475 0.1402 0.8832
vn 0.9090 0.2920 0.2975
vn 0.3662 0.8804 0.3013
vn -0.3693 0.8789 0.3019
vn -0.9040 0.2966 0.3078
vn 0.3866 -0.8477 -0.3632
vn -0.3427 -0.8807 -0.3270
vn 0.3577 -0.8991 0.2524
vn 0.3344 -0.4294 -0.8389
vn -0.0333 0.9994 -0.0052
vn -0.3149 -0.4325 -0.8449
vn 0.3607 0.2537 -0.8975
vn 0.2848 0.3258 -0.9015
vn -0.1624 0.3353 -0.9280
vn -0.3760 0.1314 -0.9173
vn 0.3371 -0.4272 -0.8389
vn -0.3502 -0.4097 -0.8423
vn -0.3619 -0.8960 0.2573
vn 0.0000 0.9048 -0.4258
vn 0.0000 -0.4061 -0.9138
vn 0.0000 -0.8944 0.4472
vn 0.0000 0.4679 0.8838
vn 0.0400 0.9992 -0.0004
vn 0.8123 0.5790 -0.0706
vn 0.0000 0.9995 -0.0327
vn -0.9993 0.0257 -0.0259
vn 0.9992 0.0159 -0.0380
vn 0.0000 0.2425 -0.9701
vn 0.0000 -0.3991 -0.9169
vn 0.0000 0.4373 0.8993
vn 0.8487 -0.4499 0.2780
vn -0.8125 0.5796 -0.0620
vn 0.8947 0.4446 0.0422
vn 0.0000 -0.0000 1.0000
vn -0.0277 0.9478 0.3175
vn 0.0284 0.3450 0.9382
vn 0.0062 -0.5307 0.8475
vn -0.8459 0.5249 0.0951
vn 0.9353 0.3317 -0.1232
vn -0.3970 0.9150 -0.0727
vn 0.7593 -0.5572 -0.3360
vn 0.4094 0.9080 -0.0893
vn -0.9406 0.3233 -0.1037
vn -0.7465 -0.5640 -0.3531
vn -0.8473 -0.4459 0.2886
usemtl helicopter_colors.png
s off
f 1/1/1 2/2/1 3/3/1
f 3/4/1 4/5/1 5/6/1
f 3/7/1 6/8/1 7/9/1
f 8/10/1 9/11/1 3/12/1
f 10/13/2 11/14/2 12/15/2 13/16/2
f 14/17/3 10/18/3 13/19/3 15/20/3
f 16/21/4 14/22/4 15/23/4 17/24/4
f 11/25/5 16/26/5 17/27/5 12/28/5
f 13/29/6 12/30/6 17/27/6 15/20/6
f 18/31/7 19/32/7 20/33/7 21/34/7
f 19/35/8 18/36/8 11/37/8 10/38/8
f 20/39/9 19/32/9 10/40/9 14/41/9
f 21/42/10 20/43/10 14/44/10 16/45/10
f 18/31/11 21/46/11 16/47/11 11/48/11
f 22/49/12 23/50/12 24/51/12
f 25/52/13 26/53/13 24/54/13
f 27/55/14 28/56/14 24/57/14
f 29/58/15 30/59/15 24/60/15
f 36/61/16 35/62/16 41/63/16
f 31/64/17 38/65/17 42/66/17
f 47/67/18 42/66/18 38/65/18
f 39/68/19 48/69/19 41/63/19
f 32/70/20 31/64/20 42/66/20
f 36/61/21 41/63/21 46/71/21
f 47/67/22 40/72/22 42/66/22
f 48/69/23 46/71/23 41/63/23
f 43/73/24 47/67/24 38/65/24 37/74/24
f 34/75/25 40/72/25 47/67/25 43/73/25
f 33/76/26 44/77/26 48/69/26 39/68/26
f 45/78/27 46/71/27 48/69/27 44/77/27
f 49/79/1 50/80/1 2/81/1 1/82/1
f 51/83/1 52/84/1 7/85/1 6/86/1
f 8/87/1 53/88/1 54/89/1 9/90/1
f 55/91/1 56/92/1 5/93/1 4/94/1
f 58/95/28 59/96/28 60/97/28
f 60/97/29 61/98/29 62/99/29
f 59/96/30 63/100/30 64/101/30
f 58/95/31 60/97/31 65/102/31
f 66/103/32 67/104/32 68/105/32
f 60/97/33 62/99/33 65/102/33
f 57/106/34 69/107/34 65/102/34
f 68/105/35 57/106/35 65/102/35
f 70/108/36 68/105/36 65/102/36
f 71/109/37 70/108/37 65/102/37
f 69/107/38 58/95/38 65/102/38
f 62/99/39 71/109/39 65/102/39
f 72/110/40 73/111/40 61/98/40
f 74/112/41 75/113/41 76/114/41 77/115/41
f 77/115/42 76/114/42 78/116/42 79/117/42
f 80/118/43 81/119/43 79/117/43 78/116/43
f 75/113/44 74/112/44 81/119/44 80/118/44
f 82/120/45 83/121/45 84/122/45 85/123/45
f 86/124/46 87/125/46 88/126/46 89/127/46
f 90/128/47 91/129/47 92/130/47 93/131/47
f 94/132/48 90/128/48 93/131/48 95/133/48
f 96/134/15 97/135/15 92/130/15 98/136/15
f 91/129/49 99/137/49 98/136/49 92/130/49
f 100/138/50 97/135/50 96/134/50 101/139/50
f 101/139/51 96/134/51 98/136/51 95/133/51
f 97/135/52 100/138/52 93/131/52 92/130/52
f 100/138/13 101/139/13 95/133/13 93/131/13
f 102/140/53 103/141/53 63/100/53 59/96/53
f 104/142/54 105/143/54 106/144/54 107/145/54
f 108/146/55 109/147/55 110/148/55 58/149/55
f 111/150/1 112/151/1 113/152/1 114/153/1
f 115/154/56 116/155/56 117/156/56 118/157/56
f 117/156/13 116/155/13 119/158/13 120/159/13
f 119/158/6 121/160/6 122/161/6 120/159/6
f 115/154/15 118/157/15 122/161/15 121/160/15
f 123/162/57 124/163/57 67/104/57 66/103/57
f 125/164/58 126/165/58 124/163/58 123/162/58
f 72/166/59 64/167/59 126/165/59 125/164/59
f 62/168/60 127/169/60 128/170/60 129/171/60
f 57/106/61 130/172/61 102/140/61 69/107/61
f 70/108/62 131/173/62 66/103/62 68/105/62
f 69/107/63 102/140/63 59/96/63 58/95/63
f 68/105/64 67/104/64 130/172/64 57/106/64
f 71/109/65 132/174/65 131/173/65 70/108/65
f 62/99/66 61/98/66 132/174/66 71/109/66
f 61/98/67 73/111/67 133/175/67 132/174/67
