# Wavefront OBJ file
# Exported by Maverick Model 3D 1.3.12
# Fri Sep 04 08:25:10 2020

mtllib ORG_CROCHEAD.mtl

# 93 Vertices
v -3.3125 7.25 1.249997
v -2.625 6.9375 0.687497
v -2.249999 6.000001 1.999998
v -2.624999 7.625001 1.874997
v 2.562499 3.687498 -3.437503
v 1.874999 4.062499 -2.875003
v 2.249999 2.437499 -2.687502
v 1.874999 3.312498 -4.062502
v 2.4375 7.25 1.249996
v 1.750001 7.625001 1.874996
v 2.125001 6.000001 1.999996
v 1.75 6.9375 0.687496
v 0.375001 1.687501 2.937499
v 1.062501 1.812502 3.624999
v 1.000001 3.250002 3.499998
v 1.750001 1.687501 2.937499
v -4.125 1.5625 -0.062499
v -3.4375 1.6875 0.5625
v -3.8125 3.0625 -0.25
v -3.4375 1.5 -0.75
v 3.0 1.687501 1.687498
v 2.3125 1.625 0.999998
v 3.0 3.125001 1.499997
v 2.312501 1.750001 2.374998
v -3.6875 1.562501 1.125
v -3.0 1.625001 1.8125
v -3.3125 3.0 0.9375
v -3.0 1.5 0.4375
v -3.374999 1.625001 2.5
v -2.687499 1.687502 3.1875
v -3.062499 3.062501 2.3125
v -2.6875 1.500001 1.8125
v 3.937497 2.437496 -8.937503
v 3.249997 2.312495 -9.625002
v 3.937497 3.874995 -9.125003
v 3.249997 2.499996 -8.250002
v 3.125 1.5625 -0.062502
v 2.4375 1.5 -0.750002
v 3.1875 3.0625 -0.250003
v 2.4375 1.6875 0.562498
v -4.750003 2.437495 -9.25
v -4.062503 2.562496 -8.5625
v -4.437503 3.874995 -9.4375
v -4.062503 2.374995 -9.9375
v -2.375004 -0.250006 -12.374999
v -3.187503 -0.250005 -9.312499
v -3.250004 2.312494 -12.4375
v -2.250001 -0.000002 -3.374999
v -3.062501 1.437498 -3.375
v -2.5 0.25 0.000001
v -2.499999 0.312501 2.875001
v -2.937499 1.625002 3.375
v 2.000001 0.312501 2.874999
v 2.437501 1.625002 3.374998
v 2.0 0.25 -0.000001
v 3.3125 1.5625 -0.062502
v 1.812499 -0.000002 -3.375
v 2.687499 1.437498 -3.375002
v 2.624997 -0.250005 -9.312501
v 3.812497 2.499995 -9.375003
v 1.937496 -0.250006 -12.375001
v 2.874996 2.312494 -12.437502
v -2.5 8.687499 -1.062503
v -3.125 6.812499 -1.750002
v -3.125 8.6875 0.499997
v -0.25 8.6875 0.499996
v 2.5625 6.812499 -1.750004
v 2.0 8.687499 -1.062505
v 2.5625 8.6875 0.499995
v -0.187502 3.999997 -6.687502
v -2.250003 4.187496 -8.375001
v -2.875002 3.749996 -7.312501
v -0.187503 2.624995 -10.250001
v -3.375003 2.624995 -10.25
v -2.625003 3.812495 -10.000001
v 2.374998 3.749996 -7.312502
v 1.812497 4.187496 -8.437503
v 2.124997 3.812495 -10.000003
v 2.812497 2.624995 -10.250002
v 1.937496 0.124994 -12.187501
v -2.375004 0.124994 -12.187499
v -2.250001 4.687498 -4.312501
v 1.812499 4.687498 -4.312503
v -2.937499 7.750001 1.874997
v 2.437501 7.750001 1.874995
v -3.250004 -1.000005 -11.249998
v -4.000003 0.937496 -8.937499
v -3.062501 3.562498 -3.500001
v -3.4375 5.625 -0.812502
v 3.0 5.625 -0.812504
v 3.499997 0.937496 -8.937502
v 2.874996 -1.000005 -11.25
v 2.687499 3.562498 -3.500003

# 276 Texture Coordinates
vt 0.733455 0.201808
vt 0.733455 0.200619
vt 0.734644 0.200619
vt 0.733455 0.201808
vt 0.733455 0.200619
vt 0.734644 0.200619
vt 0.733455 0.201808
vt 0.733455 0.200619
vt 0.734644 0.200619
vt 0.733455 0.201808
vt 0.733455 0.200619
vt 0.734644 0.200619
vt 0.733455 0.201808
vt 0.733455 0.200619
vt 0.734644 0.200619
vt 0.733455 0.201808
vt 0.733455 0.200619
vt 0.734644 0.200619
vt 0.733455 0.201808
vt 0.733455 0.200619
vt 0.734644 0.200619
vt 0.733455 0.201808
vt 0.733455 0.200619
vt 0.734644 0.200619
vt 0.733455 0.201808
vt 0.733455 0.200619
vt 0.734644 0.200619
vt 0.733455 0.201808
vt 0.733455 0.200619
vt 0.734644 0.200619
vt 0.733455 0.201808
vt 0.733455 0.200619
vt 0.734644 0.200619
vt 0.733455 0.201808
vt 0.733455 0.200619
vt 0.734644 0.200619
vt 0.733455 0.201808
vt 0.733455 0.200619
vt 0.734644 0.200619
vt 0.733455 0.201808
vt 0.733455 0.200619
vt 0.734644 0.200619
vt 0.733455 0.201808
vt 0.733455 0.200619
vt 0.734644 0.200619
vt 0.733455 0.201808
vt 0.733455 0.200619
vt 0.734644 0.200619
vt 0.733455 0.201808
vt 0.733455 0.200619
vt 0.734644 0.200619
vt 0.733455 0.201808
vt 0.733455 0.200619
vt 0.734644 0.200619
vt 0.733455 0.201808
vt 0.733455 0.200619
vt 0.734644 0.200619
vt 0.733455 0.201808
vt 0.733455 0.200619
vt 0.734644 0.200619
vt 0.733455 0.201808
vt 0.733455 0.200619
vt 0.734644 0.200619
vt 0.733455 0.201808
vt 0.733455 0.200619
vt 0.734644 0.200619
vt 0.733455 0.201808
vt 0.733455 0.200619
vt 0.734644 0.200619
vt 0.733455 0.201808
vt 0.733455 0.200619
vt 0.734644 0.200619
vt 0.733455 0.201808
vt 0.733455 0.200619
vt 0.734644 0.200619
vt 0.733455 0.201808
vt 0.733455 0.200619
vt 0.734644 0.200619
vt 0.733455 0.201808
vt 0.733455 0.200619
vt 0.734644 0.200619
vt 0.733455 0.201808
vt 0.733455 0.200619
vt 0.734644 0.200619
vt 0.733455 0.201808
vt 0.733455 0.200619
vt 0.734644 0.200619
vt 0.733455 0.201808
vt 0.733455 0.200619
vt 0.734644 0.200619
vt 0.733455 0.201808
vt 0.733455 0.200619
vt 0.734644 0.200619
vt 0.733455 0.201808
vt 0.733455 0.200619
vt 0.734644 0.200619
vt 0.733455 0.201808
vt 0.733455 0.200619
vt 0.734644 0.200619
vt 0.733455 0.201808
vt 0.733455 0.200619
vt 0.734644 0.200619
vt 0.733455 0.201808
vt 0.733455 0.200619
vt 0.734644 0.200619
vt 0.733455 0.201808
vt 0.733455 0.200619
vt 0.734644 0.200619
vt 0.733455 0.201808
vt 0.733455 0.200619
vt 0.734644 0.200619
vt 0.733455 0.201808
vt 0.733455 0.200619
vt 0.734644 0.200619
vt 0.733455 0.201808
vt 0.733455 0.200619
vt 0.734644 0.200619
vt 0.733455 0.201808
vt 0.733455 0.200619
vt 0.734644 0.200619
vt 0.498756 0.1427
vt 0.498756 0.140213
vt 0.501244 0.140213
vt 0.498756 0.1427
vt 0.498756 0.140213
vt 0.501244 0.140213
vt 0.498756 0.1427
vt 0.498756 0.140213
vt 0.501244 0.140213
vt 0.498756 0.1427
vt 0.498756 0.140213
vt 0.501244 0.140213
vt 0.498756 0.1427
vt 0.498756 0.140213
vt 0.501244 0.140213
vt 0.498756 0.1427
vt 0.498756 0.140213
vt 0.501244 0.140213
vt 0.498756 0.1427
vt 0.498756 0.140213
vt 0.501244 0.140213
vt 0.498756 0.1427
vt 0.498756 0.140213
vt 0.501244 0.140213
vt 0.498756 0.1427
vt 0.498756 0.140213
vt 0.501244 0.140213
vt 0.498756 0.1427
vt 0.498756 0.140213
vt 0.501244 0.140213
vt 0.498756 0.1427
vt 0.498756 0.140213
vt 0.501244 0.140213
vt 0.498756 0.1427
vt 0.498756 0.140213
vt 0.501244 0.140213
vt 0.498756 0.1427
vt 0.498756 0.140213
vt 0.501244 0.140213
vt 0.498756 0.1427
vt 0.498756 0.140213
vt 0.501244 0.140213
vt 0.498756 0.1427
vt 0.498756 0.140213
vt 0.501244 0.140213
vt 0.498756 0.1427
vt 0.498756 0.140213
vt 0.501244 0.140213
vt 0.498756 0.1427
vt 0.498756 0.140213
vt 0.501244 0.140213
vt 0.498756 0.1427
vt 0.498756 0.140213
vt 0.501244 0.140213
vt 0.771098 0.39697
vt 0.771098 0.395747
vt 0.77232 0.395747
vt 0.771098 0.39697
vt 0.771098 0.395747
vt 0.77232 0.395747
vt 0.771098 0.39697
vt 0.771098 0.395747
vt 0.77232 0.395747
vt 0.771098 0.39697
vt 0.771098 0.395747
vt 0.77232 0.395747
vt 0.12992 0.099771
vt 0.12992 0.099108
vt 0.130584 0.099108
vt 0.12992 0.099771
vt 0.12992 0.099108
vt 0.130584 0.099108
vt 0.12992 0.099771
vt 0.12992 0.099108
vt 0.130584 0.099108
vt 0.12992 0.099771
vt 0.12992 0.099108
vt 0.130584 0.099108
vt 0.12992 0.099771
vt 0.12992 0.099108
vt 0.130584 0.099108
vt 0.12992 0.099771
vt 0.12992 0.099108
vt 0.130584 0.099108
vt 0.12992 0.099771
vt 0.12992 0.099108
vt 0.130584 0.099108
vt 0.12992 0.099771
vt 0.12992 0.099108
vt 0.130584 0.099108
vt 0.49998 0.50002
vt 0.49998 0.49998
vt 0.50002 0.49998
vt 0.49998 0.50002
vt 0.49998 0.49998
vt 0.50002 0.49998
vt 0.49998 0.50002
vt 0.49998 0.49998
vt 0.50002 0.49998
vt 0.49998 0.50002
vt 0.49998 0.49998
vt 0.50002 0.49998
vt 0.49998 0.50002
vt 0.49998 0.49998
vt 0.50002 0.49998
vt 0.49998 0.50002
vt 0.49998 0.49998
vt 0.50002 0.49998
vt 0.49998 0.50002
vt 0.49998 0.49998
vt 0.50002 0.49998
vt 0.49998 0.50002
vt 0.49998 0.49998
vt 0.50002 0.49998
vt 0.49998 0.50002
vt 0.49998 0.49998
vt 0.50002 0.49998
vt 0.49998 0.50002
vt 0.49998 0.49998
vt 0.50002 0.49998
vt 0.49998 0.50002
vt 0.49998 0.49998
vt 0.50002 0.49998
vt 0.49998 0.50002
vt 0.49998 0.49998
vt 0.50002 0.49998
vt 0.49998 0.50002
vt 0.49998 0.49998
vt 0.50002 0.49998
vt 0.49998 0.50002
vt 0.49998 0.49998
vt 0.50002 0.49998
vt 0.49998 0.50002
vt 0.49998 0.49998
vt 0.50002 0.49998
vt 0.49998 0.50002
vt 0.49998 0.49998
vt 0.50002 0.49998
vt 0.49998 0.50002
vt 0.49998 0.49998
vt 0.50002 0.49998
vt 0.49998 0.50002
vt 0.49998 0.49998
vt 0.50002 0.49998
vt 0.49998 0.50002
vt 0.49998 0.49998
vt 0.50002 0.49998
vt 0.49998 0.50002
vt 0.49998 0.49998
vt 0.50002 0.49998
vt 0.49998 0.50002
vt 0.49998 0.49998
vt 0.50002 0.49998
vt 0.49998 0.50002
vt 0.49998 0.49998
vt 0.50002 0.49998

# 276 Vertex Normals
vn -0.505542 0.838771 -0.202217
vn -0.632542 0.558371 -0.536761
vn -0.573484 0.81844 0.035663
vn 0.000462 0.808347 -0.588707
vn -0.145831 0.787067 -0.599382
vn -0.573484 0.81844 0.035663
vn 0.15349 0.654279 -0.740513
vn 0.380425 0.745103 -0.547812
vn 0.000462 0.808347 -0.588707
vn 0.688133 0.552336 -0.470529
vn 0.525321 0.829622 -0.189116
vn 0.440532 0.867437 -0.23127
vn 0.000462 0.808347 -0.588707
vn 0.219255 0.94058 -0.259298
vn 0.160538 0.789833 -0.591938
vn 0.000462 0.808347 -0.588707
vn -0.376426 0.75132 -0.542053
vn -0.152719 0.657899 -0.737459
vn 0.07262 0.994113 -0.080406
vn -0.419171 0.907788 -0.014706
vn -0.47129 0.877943 0.084277
vn -0.095262 0.714396 -0.693226
vn -0.539196 0.651577 -0.533588
vn -0.05201 0.853395 -0.518664
vn 0.07262 0.994113 -0.080406
vn 0.607605 0.791774 0.062529
vn 0.012782 0.993716 -0.111198
vn -0.095262 0.714396 -0.693226
vn 0.380639 0.794912 -0.472471
vn 0.638731 0.590762 -0.492973
vn -0.539196 0.651577 -0.533588
vn 0.638731 0.590762 -0.492973
vn 0.507546 0.454496 -0.732004
vn -0.539196 0.651577 -0.533588
vn 0.507546 0.454496 -0.732004
vn -0.454863 0.424701 -0.78277
vn -0.539196 0.651577 -0.533588
vn -0.523756 0.732354 -0.43513
vn 0.520974 0.743325 -0.419589
vn -0.539196 0.651577 -0.533588
vn 0.520974 0.743325 -0.419589
vn 0.638731 0.590762 -0.492973
vn -0.523756 0.732354 -0.43513
vn -0.513915 0.555923 -0.653331
vn 0.423174 0.618176 -0.662406
vn -0.523756 0.732354 -0.43513
vn 0.423174 0.618176 -0.662406
vn 0.520974 0.743325 -0.419589
vn -0.513915 0.555923 -0.653331
vn -0.416981 0.908906 0.004044
vn 0.219255 0.94058 -0.259298
vn -0.513915 0.555923 -0.653331
vn 0.219255 0.94058 -0.259298
vn 0.423174 0.618176 -0.662406
vn -0.573484 0.81844 0.035663
vn -0.660604 0.575293 0.482328
vn 0.389933 0.80713 0.443276
vn -0.573484 0.81844 0.035663
vn 0.389933 0.80713 0.443276
vn 0.219255 0.94058 -0.259298
vn -0.87355 0.101214 -0.476095
vn -0.930701 0.335334 -0.146105
vn -0.539196 0.651577 -0.533588
vn -0.87355 0.101214 -0.476095
vn -0.539196 0.651577 -0.533588
vn -0.454863 0.424701 -0.78277
vn -0.930701 0.335334 -0.146105
vn -0.91264 0.29943 -0.278263
vn -0.523756 0.732354 -0.43513
vn -0.930701 0.335334 -0.146105
vn -0.523756 0.732354 -0.43513
vn -0.539196 0.651577 -0.533588
vn -0.91264 0.29943 -0.278263
vn -0.993617 0.095143 -0.060609
vn -0.632542 0.558371 -0.536761
vn -0.91264 0.29943 -0.278263
vn -0.632542 0.558371 -0.536761
vn -0.523756 0.732354 -0.43513
vn -0.993617 0.095143 -0.060609
vn -0.660604 0.575293 0.482328
vn -0.643354 0.742542 0.186352
vn -0.993617 0.095143 -0.060609
vn -0.573484 0.81844 0.035663
vn -0.632542 0.558371 -0.536761
vn 0.660213 0.646138 0.382917
vn 0.928867 0.260599 -0.263239
vn 0.688133 0.552336 -0.470529
vn 0.99172 0.128414 0.000986
vn 0.968813 0.182235 -0.167907
vn 0.976513 0.16552 -0.137933
vn 0.916537 0.233365 -0.324808
vn 0.829465 0.297023 -0.473038
vn 0.507546 0.454496 -0.732004
vn 0.916537 0.233365 -0.324808
vn 0.507546 0.454496 -0.732004
vn 0.638731 0.590762 -0.492973
vn 0.87936 0.446765 -0.164705
vn 0.916537 0.233365 -0.324808
vn 0.638731 0.590762 -0.492973
vn 0.87936 0.446765 -0.164705
vn 0.638731 0.590762 -0.492973
vn 0.520974 0.743325 -0.419589
vn 0.928867 0.260599 -0.263239
vn 0.87936 0.446765 -0.164705
vn 0.520974 0.743325 -0.419589
vn 0.928867 0.260599 -0.263239
vn 0.520974 0.743325 -0.419589
vn 0.688133 0.552336 -0.470529
vn 0.07262 0.994113 -0.080406
vn -0.095262 0.714396 -0.693226
vn -0.05201 0.853395 -0.518664
vn 0.07262 0.994113 -0.080406
vn -0.05201 0.853395 -0.518664
vn -0.419171 0.907788 -0.014706
vn -0.095262 0.714396 -0.693226
vn 0.07262 0.994113 -0.080406
vn 0.012782 0.993716 -0.111198
vn -0.095262 0.714396 -0.693226
vn 0.012782 0.993716 -0.111198
vn 0.380639 0.794912 -0.472471
vn -0.862217 -0.398796 -0.31232
vn -0.866348 -0.498469 0.031126
vn -0.963096 -0.23979 -0.122258
vn -0.862217 -0.398796 -0.31232
vn -0.963096 -0.23979 -0.122258
vn -0.866147 -0.305407 -0.395621
vn -0.866348 -0.498469 0.031126
vn -0.801023 -0.597921 -0.029197
vn -0.867801 -0.49644 0.021654
vn -0.866348 -0.498469 0.031126
vn -0.867801 -0.49644 0.021654
vn -0.963096 -0.23979 -0.122258
vn -0.801023 -0.597921 -0.029197
vn -0.761735 -0.642284 0.085038
vn -0.895816 -0.444383 -0.006069
vn -0.801023 -0.597921 -0.029197
vn -0.895816 -0.444383 -0.006069
vn -0.867801 -0.49644 0.021654
vn -0.761735 -0.642284 0.085038
vn -0.404924 -0.440261 0.801378
vn -0.646886 -0.590208 0.482901
vn -0.761735 -0.642284 0.085038
vn -0.646886 -0.590208 0.482901
vn -0.895816 -0.444383 -0.006069
vn -0.404924 -0.440261 0.801378
vn 0.649727 -0.588685 0.480941
vn 0.351922 -0.433369 0.829664
vn -0.404924 -0.440261 0.801378
vn 0.351922 -0.433369 0.829664
vn -0.646886 -0.590208 0.482901
vn 0.649727 -0.588685 0.480941
vn 0.759958 -0.649118 -0.033307
vn 0.786752 -0.615303 0.04922
vn 0.649727 -0.588685 0.480941
vn 0.786752 -0.615303 0.04922
vn 0.351922 -0.433369 0.829664
vn 0.759958 -0.649118 -0.033307
vn 0.875745 -0.478113 0.06692
vn 0.809632 -0.586728 -0.015666
vn 0.759958 -0.649118 -0.033307
vn 0.809632 -0.586728 -0.015666
vn 0.786752 -0.615303 0.04922
vn 0.875745 -0.478113 0.06692
vn 0.919311 -0.379007 -0.105934
vn 0.898045 -0.439706 -0.013204
vn 0.875745 -0.478113 0.06692
vn 0.898045 -0.439706 -0.013204
vn 0.809632 -0.586728 -0.015666
vn 0.919311 -0.379007 -0.105934
vn 0.917361 -0.340643 -0.205938
vn 0.902921 -0.364954 -0.227028
vn 0.919311 -0.379007 -0.105934
vn 0.902921 -0.364954 -0.227028
vn 0.898045 -0.439706 -0.013204
vn -0.419171 0.907788 -0.014706
vn -0.05201 0.853395 -0.518664
vn -0.539196 0.651577 -0.533588
vn -0.419171 0.907788 -0.014706
vn -0.539196 0.651577 -0.533588
vn -0.47129 0.877943 0.084277
vn 0.380639 0.794912 -0.472471
vn 0.012782 0.993716 -0.111198
vn 0.607605 0.791774 0.062529
vn 0.380639 0.794912 -0.472471
vn 0.607605 0.791774 0.062529
vn 0.638731 0.590762 -0.492973
vn -0.0 0.999835 -0.018179
vn -0.0 0.999513 -0.031201
vn -0.387293 0.921661 -0.023366
vn -0.0 0.999835 -0.018179
vn -0.387293 0.921661 -0.023366
vn -0.0 0.999835 -0.018179
vn -0.0 0.999513 -0.031201
vn -0.001559 0.994814 0.101698
vn 0.0 0.999521 0.030939
vn -0.0 0.999513 -0.031201
vn 0.0 0.999521 0.030939
vn -0.387293 0.921661 -0.023366
vn -0.001559 0.994814 0.101698
vn -0.004215 0.99972 0.023302
vn -0.210166 0.936475 0.280795
vn -0.001559 0.994814 0.101698
vn -0.210166 0.936475 0.280795
vn 0.0 0.999521 0.030939
vn -0.004215 0.99972 0.023302
vn -0.0 0.998131 -0.06111
vn -0.00396 0.998639 -0.05201
vn -0.004215 0.99972 0.023302
vn -0.00396 0.998639 -0.05201
vn -0.398071 0.914601 0.071028
vn -0.807593 -0.523351 0.27184
vn -0.605609 -0.719161 -0.340654
vn -0.807593 -0.523351 0.27184
vn -0.642697 -0.089788 0.760841
vn -0.807593 -0.523351 0.27184
vn -0.807593 -0.523351 0.27184
vn 0.977558 -0.168604 0.126309
vn 0.689511 0.238046 0.684038
vn 0.977558 -0.168604 0.126309
vn 0.718762 -0.480937 -0.502077
vn 0.977558 -0.168604 0.126309
vn 0.977558 -0.168604 0.126309
vn 0.718763 0.216686 0.660626
vn 0.718763 0.216686 0.660626
vn 0.718763 0.216686 0.660626
vn 0.673578 -0.496764 -0.547282
vn 0.673578 -0.496764 -0.547282
vn 0.673578 -0.496764 -0.547282
vn -0.709536 0.03037 0.704014
vn -0.709536 0.03037 0.704014
vn -0.709536 0.03037 0.704014
vn 0.712409 0.091477 0.695777
vn 0.712409 0.091477 0.695777
vn 0.712409 0.091477 0.695777
vn -0.896756 0.395698 0.198121
vn -0.677295 0.228519 0.699322
vn -0.677295 0.228519 0.699322
vn -0.70328 0.057948 -0.708547
vn -0.904282 0.340049 -0.258149
vn -0.70328 0.057948 -0.708547
vn 0.708291 -0.091304 -0.699991
vn 0.708291 -0.091304 -0.699991
vn 0.708291 -0.091304 -0.699991
vn 0.708292 0.091304 0.69999
vn 0.708292 0.091304 0.69999
vn 0.708292 0.091304 0.69999
vn -0.968121 0.248984 -0.027367
vn -0.693296 0.268111 0.668922
vn -0.968121 0.248984 -0.027367
vn -0.700107 0.090248 -0.708312
vn -0.968121 0.248984 -0.027367
vn -0.968121 0.248984 -0.027367
vn -0.977543 0.20925 -0.024989
vn -0.697302 0.239698 0.675511
vn -0.977543 0.20925 -0.024989
vn -0.700425 0.059496 -0.711242
vn -0.977543 0.20925 -0.024989
vn -0.977543 0.20925 -0.024989
vn 0.712391 -0.090768 -0.695888
vn 0.712391 -0.090768 -0.695888
vn 0.712391 -0.090768 -0.695888
vn 0.708292 0.091303 0.69999
vn 0.708292 0.091303 0.69999
vn 0.708292 0.091303 0.69999
vn 0.707563 -0.116603 -0.696963
vn 0.707563 -0.116603 -0.696963
vn 0.707563 -0.116603 -0.696963
vn 0.677604 0.063354 0.732693
vn 0.677604 0.063354 0.732693
vn 0.677604 0.063354 0.732693
vn -0.894614 0.444442 -0.046234
vn -0.707867 0.240511 0.664138
vn -0.977539 0.208494 -0.030775
vn -0.703063 0.060419 -0.708556
vn -0.99068 0.002413 -0.136185
vn -0.977539 0.208494 -0.030775

# , 40 grouped triangles

usemtl crochead
o 
g 

f 63/1/1 64/2/2 65/3/3
f 66/4/4 63/5/5 65/6/6
f 64/7/7 63/8/8 66/9/9
f 67/10/10 68/11/11 69/12/12
f 66/13/13 69/14/14 68/15/15
f 66/16/16 68/17/17 67/18/18
f 70/19/19 71/20/20 72/21/21
f 73/22/22 74/23/23 75/24/24
f 70/25/25 76/26/26 77/27/27
f 73/28/28 78/29/29 79/30/30
f 74/31/31 79/32/32 80/33/33
f 74/34/34 80/35/35 81/36/36
f 74/37/37 82/38/38 83/39/39
f 74/40/40 83/41/41 79/42/42
f 82/43/43 64/44/44 67/45/45
f 82/46/46 67/47/47 83/48/48
f 64/49/49 65/50/50 69/51/51
f 64/52/52 69/53/53 67/54/54
f 65/55/55 84/56/56 85/57/57
f 65/58/58 85/59/59 69/60/60
f 86/61/61 87/62/62 74/63/63
f 86/64/64 74/65/65 81/66/66
f 87/67/67 88/68/68 82/69/69
f 87/70/70 82/71/71 74/72/72
f 88/73/73 89/74/74 64/75/75
f 88/76/76 64/77/77 82/78/78
f 89/79/79 84/80/80 65/81/81
f 89/82/82 65/83/83 64/84/84
f 85/85/85 90/86/86 67/87/87
f 85/88/88 67/89/89 69/90/90
f 91/91/91 92/92/92 80/93/93
f 91/94/94 80/95/95 79/96/96
f 93/97/97 91/98/98 79/99/99
f 93/100/100 79/101/101 83/102/102
f 90/103/103 93/104/104 83/105/105
f 90/106/106 83/107/107 67/108/108
f 70/109/109 73/110/110 75/111/111
f 70/112/112 75/113/113 71/114/114
f 73/115/115 70/116/116 77/117/117
f 73/118/118 77/119/119 78/120/120
# 2, 18 grouped triangles

usemtl crochead
o 2
g 2

f 45/121/121 46/122/122 41/123/123
f 45/124/124 41/125/125 47/126/126
f 46/127/127 48/128/128 49/129/129
f 46/130/130 49/131/131 41/132/132
f 48/133/133 50/134/134 17/135/135
f 48/136/136 17/137/137 49/138/138
f 50/139/139 51/140/140 52/141/141
f 50/142/142 52/143/143 17/144/144
f 51/145/145 53/146/146 54/147/147
f 51/148/148 54/149/149 52/150/150
f 53/151/151 55/152/152 56/153/153
f 53/154/154 56/155/155 54/156/156
f 55/157/157 57/158/158 58/159/159
f 55/160/160 58/161/161 56/162/162
f 57/163/163 59/164/164 60/165/165
f 57/166/166 60/167/167 58/168/168
f 59/169/169 61/170/170 62/171/171
f 59/172/172 62/173/173 60/174/174
# 3, 4 grouped triangles

usemtl crochead
o 3
g 3

f 71/175/175 75/176/176 74/177/177
f 71/178/178 74/179/179 72/180/180
f 78/181/181 77/182/182 76/183/183
f 78/184/184 76/185/185 79/186/186
# 4, 8 grouped triangles

usemtl crochead
o 4
g 4

f 54/187/187 56/188/188 17/189/189
f 54/190/190 17/191/191 52/192/192
f 56/193/193 58/194/194 49/195/195
f 56/196/196 49/197/197 17/198/198
f 58/199/199 60/200/200 41/201/201
f 58/202/202 41/203/203 49/204/204
f 60/205/205 62/206/206 47/207/207
f 60/208/208 47/209/209 41/210/210
# 5, 22 grouped triangles

usemtl crochead
o 5
g 5

f 1/211/211 2/212/212 3/213/213
f 4/214/214 1/215/215 3/216/216
f 5/217/217 6/218/218 7/219/219
f 8/220/220 5/221/221 7/222/222
f 9/223/223 10/224/224 11/225/225
f 12/226/226 9/227/227 11/228/228
f 13/229/229 14/230/230 15/231/231
f 14/232/232 16/233/233 15/234/234
f 17/235/235 18/236/236 19/237/237
f 20/238/238 17/239/239 19/240/240
f 21/241/241 22/242/242 23/243/243
f 24/244/244 21/245/245 23/246/246
f 25/247/247 26/248/248 27/249/249
f 28/250/250 25/251/251 27/252/252
f 29/253/253 30/254/254 31/255/255
f 32/256/256 29/257/257 31/258/258
f 33/259/259 34/260/260 35/261/261
f 36/262/262 33/263/263 35/264/264
f 37/265/265 38/266/266 39/267/267
f 40/268/268 37/269/269 39/270/270
f 41/271/271 42/272/272 43/273/273
f 44/274/274 41/275/275 43/276/276
