# Blender v2.79 (sub 0) OBJ File: ''
# www.blender.org
mtllib slug.mtl
o SWP_SLUG
v -0.712500 0.000001 -3.918750
v -0.337500 0.675001 -3.487500
v 0.206250 0.675001 -3.487500
v 0.618750 0.000001 -3.918750
v -0.956250 0.000000 -2.493750
v -0.431250 1.350000 -2.437500
v 0.318750 1.350000 -2.437500
v 0.862500 0.000000 -2.493750
v -1.181250 0.000000 -1.162500
v -0.506250 1.781250 -1.368750
v 0.412500 1.781250 -1.368750
v 1.106250 0.000000 -1.162500
v 0.900000 2.137500 0.675000
v 1.275000 -0.000000 0.431250
v -0.956250 2.118750 0.675000
v -1.331250 -0.000000 0.431250
v 1.031250 -0.000000 2.137500
v 0.731250 1.050000 1.706250
v -0.787500 1.050000 1.706250
v -1.106250 -0.000000 2.137500
v -0.825000 2.287500 3.356251
v -0.337500 1.050000 1.668750
v 0.281250 1.050000 1.706250
v 0.693750 2.381250 3.393751
vt 0.247059 0.000000
vt 0.392157 0.000000
vt 0.607843 0.000000
vt 0.764706 0.000000
vt 0.188235 0.000000
vt 0.352941 0.000000
vt 0.647059 0.000000
vt 0.827451 0.000000
vt 0.070588 0.000000
vt 0.317647 0.000000
vt 0.686275 0.000000
vt 0.949020 0.000000
vt 0.870588 0.000000
vt 1.000000 0.000000
vt 0.152941 0.000000
vt 0.007843 0.000000
vt 1.000000 1.000000
vt 0.807843 0.600000
vt 0.219608 0.600000
vt 0.007843 1.000000
vt 0.631373 0.592157
vt 0.792157 1.000000
vt 0.388235 0.564706
vt 0.200000 1.000000
vn 0.0000 0.5384 -0.8427
vn -0.8649 0.4418 -0.2384
vn 0.0000 0.8412 -0.5408
vn 0.8514 0.4619 -0.2485
vn 0.0000 -1.0000 -0.0000
vn -0.9218 0.3448 -0.1772
vn 0.0000 0.9274 -0.3742
vn 0.9158 0.3527 -0.1922
vn 0.9456 0.2598 -0.1960
vn -0.0067 0.9859 -0.1673
vn -0.9493 0.2573 -0.1805
vn 0.0000 0.3799 0.9250
vn -0.9495 0.2211 0.2229
vn -0.0038 0.6912 0.7226
vn 0.9497 0.2145 0.2283
vn 0.0000 0.7851 -0.6194
vn 0.0500 -0.7985 0.6000
usemtl tex127
s off
f 1/1/1 2/2/1 3/3/1 4/4/1
f 5/5/2 6/6/2 2/2/2 1/1/2
f 7/7/3 3/3/3 2/2/3 6/6/3
f 4/4/4 3/3/4 7/7/4 8/8/4
f 4/4/5 8/8/5 5/5/5 1/1/5
f 9/9/6 10/10/6 6/6/6 5/5/6
f 11/11/7 7/7/7 6/6/7 10/10/7
f 8/8/8 7/7/8 11/11/8 12/12/8
f 12/12/5 9/9/5 5/5/5 8/8/5
f 12/12/9 11/11/9 13/13/9 14/14/9
f 13/13/10 11/11/10 10/10/10 15/15/10
f 16/16/11 15/15/11 10/10/11 9/9/11
f 12/12/5 14/14/5 16/16/5 9/9/5
f 17/17/12 18/18/12 19/19/12 20/20/12
f 20/20/13 19/19/13 15/15/13 16/16/13
f 15/15/14 19/19/14 18/18/14 13/13/14
f 14/14/15 13/13/15 18/18/15 17/17/15
f 14/14/5 17/17/5 20/20/5 16/16/5
f 18/18/16 23/21/16 24/22/16
f 22/23/17 21/24/17 19/19/17
