# Blender v2.79 (sub 0) OBJ File: ''
# www.blender.org
mtllib DES_TUMBLEWEED.mtl
o DES_TUMBLEWEED
v -3.812500 -3.812501 5.375000
v 0.000000 -0.000001 7.625000
v -5.375000 -0.000001 5.375000
v 0.000000 -5.375001 5.374999
v 3.812500 -3.812501 5.375000
v 5.375000 -0.000001 5.375000
v 3.812500 3.812499 5.375000
v 0.000000 5.374999 5.375001
v -3.812500 3.812499 5.375000
v -3.812500 -3.812499 -5.375000
v -5.375000 0.000001 -5.375000
v 0.000000 0.000001 -7.625000
v -3.812500 3.812501 -5.375000
v 0.000000 5.375001 -5.374999
v 0.000000 -5.374999 -5.375001
v 3.812500 -3.812499 -5.375000
v 5.375000 0.000001 -5.375000
v 3.812500 3.812501 -5.375000
v 5.375000 5.375000 0.000001
v -5.375000 5.375000 0.000001
v -5.375000 -5.375000 -0.000001
v 5.375000 -5.375000 -0.000001
v -7.625000 0.000000 0.000000
v 7.625000 0.000000 0.000000
v 0.000000 7.625000 0.000001
v 0.000000 -7.625000 -0.000001
vt 0.819608 0.184314
vt 0.509804 0.494118
vt 0.949020 0.494118
vt 0.509804 0.054902
vt 0.196078 0.184314
vt 0.066667 0.494118
vt 0.196078 0.803922
vt 0.509804 0.933333
vt 0.819608 0.803922
vt 0.819608 0.184314
vt 0.949020 0.494118
vt 0.509804 0.494118
vt 0.819608 0.803922
vt 0.509804 0.933333
vt 0.509804 0.054902
vt 0.196078 0.184314
vt 0.066667 0.494118
vt 0.196078 0.803922
vt 1.000000 1.000000
vt 1.000000 0.000000
vt 0.000000 0.000000
vt 0.000000 1.000000
vt 1.000000 1.000000
vt 1.000000 0.000000
vt 0.000000 0.000000
vt 0.000000 1.000000
vt 1.000000 1.000000
vt 1.000000 0.000000
vt 0.000000 0.000000
vt 0.000000 1.000000
vt 0.498039 0.992157
vt 0.498039 0.505882
vt 0.011765 0.505882
vt 0.152941 0.988235
vt 0.839216 0.988235
vt 0.980392 0.505882
vt 0.839216 0.019608
vt 0.498039 0.019608
vt 0.152941 0.019608
vt 0.498039 0.996078
vt 0.498039 0.509804
vt 0.011765 0.509804
vt 0.152941 0.996078
vt 0.839216 0.996078
vt 0.980392 0.509804
vt 0.498039 0.023529
vt 0.152941 0.023529
vt 0.839216 0.023529
vt 0.498039 0.996078
vt 0.498039 0.509804
vt 0.980392 0.509804
vt 0.839216 0.996078
vt 0.498039 0.023529
vt 0.839216 0.023529
vt 0.152941 0.996078
vt 0.011765 0.509804
vt 0.152941 0.023529
vt 0.152941 0.988235
vt 0.011765 0.501961
vt 0.498039 0.501961
vt 0.498039 0.988235
vt 0.152941 0.019608
vt 0.498039 0.019608
vt 0.839216 0.019608
vt 0.980392 0.501961
vt 0.839216 0.988235
vn -0.5300 -0.5300 0.6619
vn 0.0000 0.2861 0.9582
vn -0.7489 0.0000 0.6626
vn -0.2896 -0.7168 0.6343
vn 0.5300 -0.5300 0.6619
vn 0.7489 0.0000 0.6626
vn 0.5300 0.5300 0.6619
vn -0.2896 0.7168 0.6343
vn -0.5300 0.5300 0.6619
vn -0.5300 -0.5300 -0.6619
vn -0.7489 0.0000 -0.6626
vn 0.0000 0.2861 -0.9582
vn -0.5300 0.5300 -0.6619
vn -0.2896 0.7168 -0.6343
vn -0.2896 -0.7168 -0.6343
vn 0.5300 -0.5300 -0.6619
vn 0.7489 0.0000 -0.6626
vn 0.5300 0.5300 -0.6619
vn 0.6736 0.6736 0.3040
vn -0.6736 0.6736 0.3040
vn -0.6736 -0.6736 0.3040
vn 0.6736 -0.6736 0.3040
vn -0.9523 0.3051 0.0000
vn 0.9523 0.3051 0.0000
vn 0.0000 1.0000 0.0000
vn 0.0000 -1.0000 0.0000
usemtl 20.png
s 1
f 1/1/1 2/2/2 3/3/3
f 4/4/4 2/2/2 1/1/1
f 5/5/5 2/2/2 4/4/4
f 6/6/6 2/2/2 5/5/5
f 7/7/7 2/2/2 6/6/6
f 8/8/8 2/2/2 7/7/7
f 9/9/9 2/2/2 8/8/8
f 3/3/3 2/2/2 9/9/9
f 10/10/10 11/11/11 12/12/12
f 13/13/13 14/14/14 12/12/12
f 15/15/15 10/10/10 12/12/12
f 16/16/16 15/15/15 12/12/12
f 17/17/17 16/16/16 12/12/12
f 18/18/18 17/17/17 12/12/12
f 11/11/11 13/13/13 12/12/12
f 14/14/14 18/18/18 12/12/12
f 19/19/19 20/20/20 21/21/21 22/22/22
f 12/23/12 23/24/23 2/25/2 24/26/24
f 14/27/14 15/28/15 4/29/4 8/30/8
f 11/31/11 23/32/23 20/33/20 13/34/13
f 10/35/10 21/36/21 23/32/23 11/31/11
f 21/36/21 1/37/1 3/38/3 23/32/23
f 23/32/23 3/38/3 9/39/9 20/33/20
f 14/40/14 25/41/25 19/42/19 18/43/18
f 13/44/13 20/45/20 25/41/25 14/40/14
f 25/41/25 8/46/8 7/47/7 19/42/19
f 20/45/20 9/48/9 8/46/8 25/41/25
f 15/49/15 26/50/26 21/51/21 10/52/10
f 26/50/26 4/53/4 1/54/1 21/51/21
f 16/55/16 22/56/22 26/50/26 15/49/15
f 22/56/22 5/57/5 4/53/4 26/50/26
f 18/58/18 19/59/19 24/60/24 17/61/17
f 19/59/19 7/62/7 6/63/6 24/60/24
f 24/60/24 6/63/6 5/64/5 22/65/22
f 17/61/17 24/60/24 22/65/22 16/66/16
