# Blender v2.79 (sub 0) OBJ File: ''
# www.blender.org
mtllib GEN_GOLD_FROG.mtl
o eyes
v 0.000000 5.062500 2.562502
v -2.000000 2.625000 1.312500
v -1.750000 2.750000 2.875000
v -0.687500 4.375000 3.750002
v 1.875000 2.750000 2.812500
v 2.062500 2.625000 1.312500
v 0.750000 4.312500 3.687502
vt 1.000000 0.000000
vt 0.000000 0.000000
vt 0.000000 1.000000
vt 1.000000 1.000000
vt 0.000000 1.000000
vt 0.000000 0.000000
vt 1.000000 1.000000
vn -0.7976 0.6031 -0.0035
vn 0.7775 0.6286 -0.0169
usemtl tex0_23.png
s 1
f 1/1/1 2/2/1 3/3/1 4/4/1
f 5/5/2 6/6/2 1/1/2 7/7/2
o croak_ball
v 0.187500 2.437500 1.687500
v 0.187500 2.187500 1.437500
v 0.000000 2.062500 1.437500
v 0.000000 2.437500 1.750000
v 0.187500 2.437500 1.187500
v 0.000000 2.437500 1.125000
v 0.187500 2.625000 1.437500
v 0.000000 2.750000 1.437500
v -0.187500 2.187500 1.437500
v -0.187500 2.437500 1.687500
v -0.187500 2.437500 1.187500
v -0.187500 2.625000 1.437500
v 0.312500 2.437500 1.437500
v -0.312500 2.437500 1.437500
vt 0.000000 0.000000
vt 1.000000 0.000000
vt 1.000000 1.000000
vt 0.000000 1.000000
vt 0.000000 0.000000
vt 1.000000 0.000000
vt 1.000000 1.000000
vt 0.000000 1.000000
vt 0.000000 0.000000
vt 1.000000 0.000000
vt 1.000000 1.000000
vt 0.000000 1.000000
vt 0.000000 0.000000
vt 1.000000 0.000000
vt 1.000000 1.000000
vt 0.000000 1.000000
vt 0.000000 0.000000
vt 1.000000 0.000000
vt 1.000000 1.000000
vt 0.000000 1.000000
vt 0.000000 0.000000
vt 1.000000 0.000000
vt 1.000000 1.000000
vt 0.000000 1.000000
vt 0.000000 0.000000
vt 1.000000 0.000000
vt 1.000000 1.000000
vt 0.000000 1.000000
vt 0.000000 0.000000
vt 1.000000 0.000000
vt 1.000000 1.000000
vt 0.000000 1.000000
vt 0.000000 0.000000
vt 1.000000 1.000000
vt 1.000000 1.000000
vt 1.000000 1.000000
vt 1.000000 1.000000
vt 0.000000 0.000000
vt 1.000000 0.000000
vt 1.000000 1.000000
vt 0.000000 0.000000
vt 1.000000 0.000000
vt 0.000000 0.000000
vt 1.000000 0.000000
vt 0.000000 0.000000
vt 1.000000 0.000000
vn -0.3277 0.6320 -0.7022
vn -0.3277 0.6320 0.7022
vn -0.3386 -0.7033 0.6251
vn -0.3386 -0.7033 -0.6251
vn 0.3277 0.6320 -0.7022
vn 0.3277 0.6320 0.7022
vn 0.3386 -0.7033 0.6251
vn 0.3386 -0.7033 -0.6251
vn -0.8165 0.4082 -0.4082
vn -0.8165 0.4082 0.4082
vn -0.7682 -0.5121 0.3841
vn -0.7682 -0.5121 -0.3841
vn 0.8165 0.4082 -0.4082
vn 0.8165 0.4082 0.4082
vn 0.7682 -0.5121 0.3841
vn 0.7682 -0.5121 -0.3841
usemtl tex0
s 1
f 8/8/3 9/9/3 10/10/3 11/11/3
f 9/12/4 12/13/4 13/14/4 10/15/4
f 12/16/5 14/17/5 15/18/5 13/19/5
f 14/20/6 8/21/6 11/22/6 15/23/6
f 11/24/7 10/25/7 16/26/7 17/27/7
f 10/28/8 13/29/8 18/30/8 16/31/8
f 13/32/9 15/33/9 19/34/9 18/35/9
f 15/36/10 11/37/10 17/38/10 19/39/10
f 20/40/11 9/9/11 8/41/11
f 20/40/12 12/13/12 9/42/12
f 20/40/13 14/17/13 12/43/13
f 20/40/14 8/21/14 14/44/14
f 17/45/15 16/46/15 21/47/15
f 16/48/16 18/49/16 21/47/16
f 18/50/17 19/51/17 21/47/17
f 19/52/18 17/53/18 21/47/18
o body
v 0.000000 0.000000 -1.437500
v 1.687500 2.937500 -1.062500
v 3.500000 3.687500 -0.374998
v 2.625000 1.562500 -1.000000
v -0.562500 0.250000 -1.312500
v -1.000000 3.312500 0.625002
v 0.000000 3.750000 0.500002
v -3.187500 0.062500 2.750000
v -2.000000 0.062498 3.312500
v -0.687500 0.124998 3.125000
v -1.625000 -0.000000 1.812500
v 0.562500 0.312500 -1.312500
v 1.125000 3.312500 0.625002
v 1.937500 0.062500 2.000000
v 1.562500 0.062500 1.875000
v 1.562500 1.187500 0.125000
v 2.625000 1.312500 0.625000
v 0.625000 0.312500 -0.812500
v 2.062500 2.625000 1.312500
v -0.562500 0.312500 -0.812500
v -2.000000 2.625000 1.312500
v -2.812500 3.500000 0.562502
v -1.437500 1.875000 0.062500
v -1.687500 2.937500 -1.062500
v -3.500000 3.687500 -0.374998
v -2.625000 1.562500 -1.000000
v 2.125000 0.062500 -0.625000
v 1.562500 0.062500 -1.250000
v 3.937500 3.125000 0.125002
v -1.625000 0.000000 -0.562500
v -3.875000 3.312500 0.125002
v -2.187500 0.000000 -0.625000
v -1.750000 0.000000 -1.250000
v -4.312500 0.000000 -0.687500
v -3.250000 0.062500 1.125000
v -1.000000 0.062500 1.125000
v 2.875000 3.500000 0.562502
v 1.500000 0.062500 -0.500000
v 1.500000 1.875000 0.000000
v -1.687500 -0.000000 2.125000
v -1.437500 1.187500 0.062500
v -1.812500 2.250000 1.000000
v 1.687500 0.125000 2.187500
v 1.875000 2.187500 0.937500
v -1.937500 -0.000000 1.937500
v -2.625000 1.187500 0.625000
v 0.562500 0.062500 3.000000
v 1.750000 0.124998 3.562500
v 3.062500 0.187498 3.187500
v 0.000000 5.062500 2.562502
v 1.875000 2.750000 2.812500
v 0.750000 4.312500 3.687502
v -0.687500 4.375000 3.750002
v 0.000000 3.124998 4.187500
v 4.187500 0.062500 -0.812500
v 3.312500 0.062500 1.062500
v 1.000000 0.062500 1.062500
v -1.750000 2.750000 2.875000
vt 0.898039 0.949020
vt 0.615686 0.329412
vt 0.262745 0.164706
vt 0.866667 0.568627
vt 0.000000 1.000000
vt 1.000000 1.000000
vt 1.000000 0.000000
vt 0.000000 0.000000
vt 0.000000 0.000000
vt 1.000000 0.000000
vt 1.000000 1.000000
vt 0.556863 0.419608
vt 1.000000 1.000000
vt 1.000000 0.000000
vt 0.000000 0.000000
vt 0.000000 1.000000
vt 0.003922 0.301961
vt 0.019608 0.352941
vt 0.074510 0.125490
vt 0.007843 0.027451
vt 0.588235 0.952941
vt 0.721569 0.313726
vt 0.796078 0.298039
vt 0.211765 1.000000
vt 0.384314 1.000000
vt 0.000000 0.000000
vt 0.141176 0.000000
vt 0.219608 0.317647
vt 0.000000 0.000000
vt 0.000000 1.000000
vt 1.000000 1.000000
vt 1.000000 0.000000
vt 0.866667 0.568627
vt 0.866667 0.568627
vt 0.262745 0.164706
vt 0.898039 0.949020
vt 0.203922 0.701961
vt 0.000000 0.000000
vt 0.839216 0.443137
vt 0.701961 0.498039
vt 0.294118 0.650980
vt 0.094118 0.215686
vt 0.658824 0.388235
vt 0.839216 0.443137
vt 1.000000 1.000000
vt 1.000000 0.000000
vt 0.000000 0.000000
vt 0.121569 0.000000
vt 0.027451 0.607843
vt 0.294118 0.650980
vt 0.517647 0.439216
vt 0.447059 0.376471
vt 0.000000 0.000000
vt 0.007843 0.027451
vt 0.262745 0.164706
vt 0.121569 0.000000
vt 0.898039 0.949020
vt 0.294118 0.650980
vt 0.121569 0.000000
vt 0.615686 0.329412
vt 0.000000 0.439216
vt 0.000000 0.000000
vt 0.384314 0.325490
vt 0.000000 0.000000
vt 1.000000 0.000000
vt 1.000000 1.000000
vt 0.019608 0.352941
vt 0.000000 0.000000
vt 0.000000 1.000000
vt 1.000000 1.000000
vt 0.000000 0.000000
vt 1.000000 0.000000
vt 1.000000 1.000000
vt 0.776471 0.090196
vt 0.600000 0.019608
vt 0.000000 1.000000
vt 1.000000 1.000000
vt 1.000000 0.000000
vt 1.000000 0.000000
vt 1.000000 1.000000
vt 0.000000 1.000000
vt 0.058824 0.000000
vt 0.498039 0.843137
vt 0.494118 0.984314
vt 0.058824 0.000000
vt 0.219608 0.556863
vt 1.000000 0.000000
vt 0.000000 1.000000
vt 0.717647 1.000000
vt 0.945098 0.203922
vt 0.796078 0.298039
vt 0.141176 0.000000
vt 0.627451 0.376471
vt 0.015686 0.596078
vt 0.254902 0.156863
vt 1.000000 1.000000
vt 1.000000 1.000000
vn 0.1995 0.0917 -0.9756
vn -0.1943 0.4755 -0.8580
vn -0.0180 0.9988 -0.0461
vn 0.1632 0.4809 -0.8614
vn 0.3009 -0.7900 -0.5342
vn 0.7970 0.1478 -0.5856
vn 0.0000 -0.6766 0.7363
vn -0.7954 0.1637 -0.5836
vn 0.8201 0.4957 0.2859
vn -0.1995 0.0917 -0.9756
vn 0.6771 -0.2081 -0.7059
vn -0.2384 -0.3499 0.9059
vn -0.7524 -0.2259 -0.6187
vn -0.0033 0.9996 -0.0284
vn 0.2216 -0.3613 0.9057
vn 0.6038 -0.5462 0.5806
vn -0.8343 0.4702 -0.2877
vn 0.9661 0.1550 0.2064
vn -0.5983 -0.5373 0.5945
vn -0.8130 0.4772 0.3337
vn 0.6608 0.3511 0.6633
vn -0.2590 -0.7833 -0.5651
vn -0.6713 0.3165 0.6702
vn -0.9615 0.2163 0.1697
vn -0.0475 0.9984 -0.0317
vn 0.8236 0.4372 -0.3614
vn 0.5520 0.7525 -0.3592
vn 0.4087 0.1227 0.9044
vn -0.5653 0.7358 -0.3728
vn 0.0000 -1.0000 -0.0000
vn -0.0747 -0.9717 0.2242
vn 0.3050 0.5413 -0.7835
vn 0.4575 0.7625 0.4575
vn -0.3371 -0.7320 0.5920
vn -0.7106 -0.2964 0.6381
vn -0.3179 0.8574 0.4046
vn 0.3567 0.9312 -0.0754
vn 0.3324 -0.7268 0.6011
vn 0.3804 0.2853 -0.8797
vn -0.4068 0.3111 -0.8589
vn 0.7041 -0.3136 0.6371
vn -0.7944 0.6075 0.0000
vn -0.3595 0.5428 -0.7590
vn 0.0000 1.0000 0.0000
vn 0.7779 0.5834 0.2334
vn -0.5932 -0.0449 0.8038
vn -0.3634 0.9299 -0.0563
vn 0.0598 0.8485 0.5258
usemtl tex1436
s 1
f 22/54/19 23/55/19 24/56/19 25/57/19
f 26/58/20 27/59/20 28/60/20 22/61/20
f 29/62/21 30/63/21 31/64/21 32/65/21
f 33/66/22 22/67/22 28/68/22 34/69/22
f 35/70/23 36/71/23 37/72/23 38/73/23
f 39/74/24 33/75/24 34/76/24 40/77/24
f 41/78/25 39/74/25 40/77/25 42/79/25
f 27/80/26 26/81/26 41/78/26 42/79/26
f 43/82/27 44/83/27 22/84/27 45/85/27
f 46/86/28 45/87/28 22/88/28 47/89/28
f 48/90/29 49/91/29 24/56/29 50/92/29
f 51/93/30 43/94/30 52/95/30 53/96/30
f 54/97/31 53/96/31 52/95/31 46/86/31
f 55/98/32 56/99/32 57/100/32 54/97/32
f 48/90/33 50/92/33 58/101/33 59/102/33
f 60/103/34 25/57/34 24/56/34 58/101/34
f 59/102/35 58/101/35 24/56/35 49/91/35
f 61/104/36 32/105/36 62/106/36 63/107/36
f 47/108/37 44/109/37 43/94/37 46/86/37
f 60/110/38 58/111/38 23/112/38 22/113/38
f 64/114/39 35/70/39 38/73/39 65/115/39
f 66/116/40 67/117/40 62/106/40 32/105/40
f 66/116/41 61/104/41 63/107/41 67/117/41
f 36/71/42 64/114/42 65/115/42 37/72/42
f 68/118/43 69/119/43 70/120/43 36/121/43
f 51/93/44 54/97/44 46/86/44 43/94/44
f 40/122/45 34/123/45 28/60/45 71/124/45
f 72/125/46 73/126/46 74/127/46 75/128/46
f 28/68/47 27/129/47 42/130/47 71/131/47
f 76/132/48 77/133/48 78/134/48 49/91/48
f 35/70/49 64/114/49 36/71/49
f 37/72/50 65/115/50 38/73/50
f 50/135/51 24/56/51 58/101/51
f 47/108/52 22/54/52 44/109/52
f 34/76/53 37/136/53 65/137/53
f 51/93/48 53/96/48 54/97/48
f 43/138/54 46/139/54 52/95/54
f 46/140/55 43/82/55 45/141/55
f 60/103/56 22/54/56 25/57/56
f 37/136/57 34/76/57 38/142/57
f 67/143/58 27/80/58 62/144/58
f 63/145/59 62/144/59 27/80/59
f 27/80/60 67/143/60 63/145/60
f 67/117/61 63/107/61 62/106/61
f 32/65/62 66/146/62 61/104/62
f 49/91/62 59/102/62 48/147/62
f 65/137/63 38/142/63 34/76/63
f 74/127/64 79/148/64 75/128/64
f 58/101/65 24/56/65 23/55/65
f 74/149/66 73/126/66 71/150/66
