# Blender v2.79 (sub 0) OBJ File: ''
# www.blender.org
mtllib froglet.mtl
o froglet_croak-ball
v 0.312500 2.437500 1.437500
v 0.187500 2.187500 1.437500
v 0.187500 2.437500 1.687500
v 0.187500 2.437500 1.187500
v 0.187500 2.625000 1.437500
v -0.187500 2.437500 1.687500
v -0.187500 2.187500 1.437500
v -0.312500 2.437500 1.437500
v -0.187500 2.437500 1.187500
v -0.187500 2.625000 1.437500
v 0.000000 2.062500 1.437500
v 0.000000 2.437500 1.750000
v 0.000000 2.437500 1.125000
v 0.000000 2.750000 1.437500
vt 0.114591 0.114809
vt 0.382463 0.114809
vt 0.382463 0.382681
vt 0.382463 0.114809
vt 0.382463 0.382681
vt 0.382463 0.114809
vt 0.382463 0.382681
vt 0.382463 0.114809
vt 0.382463 0.382681
vt 0.114591 0.114809
vt 0.382463 0.114809
vt 0.382463 0.382681
vt 0.114591 0.114809
vt 0.382463 0.114809
vt 0.114591 0.114809
vt 0.382463 0.114809
vt 0.114591 0.114809
vt 0.382463 0.114809
vt 0.114591 0.114809
vt 0.382463 0.382681
vt 0.114591 0.382681
vt 0.114591 0.114809
vt 0.382463 0.382681
vt 0.114591 0.382681
vt 0.114591 0.114809
vt 0.382463 0.382681
vt 0.114591 0.382681
vt 0.114591 0.114809
vt 0.382463 0.382681
vt 0.114591 0.382681
vt 0.114591 0.114809
vt 0.382463 0.114809
vt 0.382463 0.382681
vt 0.114591 0.382681
vt 0.114591 0.114809
vt 0.382463 0.114809
vt 0.382463 0.382681
vt 0.114591 0.382681
vt 0.114591 0.114809
vt 0.382463 0.114809
vt 0.382463 0.382681
vt 0.114591 0.382681
vt 0.114591 0.114809
vt 0.382463 0.114809
vt 0.382463 0.382681
vt 0.114591 0.382681
vn -0.8165 0.4082 -0.4082
vn -0.8165 0.4082 0.4082
vn -0.7682 -0.5121 0.3841
vn -0.7682 -0.5121 -0.3841
vn 0.8165 0.4082 -0.4082
vn 0.8165 0.4082 0.4082
vn 0.7682 -0.5121 0.3841
vn 0.7682 -0.5121 -0.3841
vn -0.3277 0.6320 -0.7022
vn -0.3277 0.6320 0.7022
vn -0.3386 -0.7033 0.6251
vn -0.3386 -0.7033 -0.6251
vn 0.3277 0.6320 -0.7022
vn 0.3277 0.6320 0.7022
vn 0.3386 -0.7033 0.6251
vn 0.3386 -0.7033 -0.6251
usemtl froglet_green
s off
f 1/1/1 2/2/1 3/3/1
f 1/1/2 4/4/2 2/5/2
f 1/1/3 5/6/3 4/7/3
f 1/1/4 3/8/4 5/9/4
f 6/10/5 7/11/5 8/12/5
f 7/13/6 9/14/6 8/12/6
f 9/15/7 10/16/7 8/12/7
f 10/17/8 6/18/8 8/12/8
f 3/19/9 2/2/9 11/20/9 12/21/9
f 2/22/10 4/4/10 13/23/10 11/24/10
f 4/25/11 5/6/11 14/26/11 13/27/11
f 5/28/12 3/8/12 12/29/12 14/30/12
f 12/31/13 11/32/13 7/33/13 6/34/13
f 11/35/14 13/36/14 9/37/14 7/38/14
f 13/39/15 14/40/15 10/41/15 9/42/15
f 14/43/16 12/44/16 6/45/16 10/46/16
o froglet_body
v 0.000000 4.625000 2.437501
v -2.000000 2.750000 1.500000
v -2.250000 2.375000 3.437500
v -0.875000 4.374999 4.562500
v 2.375000 2.375000 3.437500
v 2.062500 2.750000 1.500000
v 1.000000 4.374999 4.500000
v 1.937500 -0.000000 2.000000
v 1.687500 -0.000000 2.125000
v 1.625000 -0.000000 1.812500
v 1.625000 1.687500 0.000000
v 1.937500 2.687500 0.875000
v 2.750000 1.750000 0.562500
v 3.937500 3.125000 0.125001
v 3.500000 3.687500 -0.374999
v 2.875000 3.500000 0.562501
v -2.625000 1.562500 -1.750000
v 0.000000 0.000000 -1.437500
v -1.062500 1.875000 0.062500
v 1.125000 3.312500 0.625001
v -1.625000 0.000000 -0.562500
v -2.187500 0.000000 -0.625000
v -1.750000 0.000000 -1.250000
v -2.812500 3.500000 0.562501
v -3.500000 3.687500 -0.374999
v -3.875000 3.312500 0.125001
v -1.750000 2.875000 -1.250000
v 1.125000 1.875000 0.000000
v 2.625000 1.562500 -1.750000
v -2.750000 1.687500 0.500000
v -1.000000 3.312500 0.625001
v -1.500000 1.625000 0.000000
v -1.937500 2.750000 0.875000
v -1.687500 -0.000000 1.750000
v -1.937500 -0.062500 1.875000
v -1.687500 -0.062500 2.062500
v 1.562500 0.062500 -1.250000
v 1.500000 0.062500 -0.500000
v 2.125000 0.062500 -0.625000
v -0.875000 4.374999 4.562500
v -2.250000 2.375000 3.437500
v 0.000000 2.812499 5.125000
v 1.812500 2.937500 -1.250000
v 1.000000 4.374999 4.500000
v 0.000000 4.625000 2.437501
v -0.562500 0.250000 -1.312500
v 0.000000 3.750000 0.500001
v -3.437500 -0.000000 2.937500
v -2.000000 -0.000001 3.437500
v -0.500000 0.062499 3.250000
v 0.562500 0.312500 -1.312500
v 3.500000 0.062500 1.375000
v 4.562500 0.062500 -0.437500
v 1.375000 0.062500 2.062500
v 0.937500 0.312500 -0.812500
v 2.062500 2.750000 1.500000
v -0.875000 0.312500 -0.812500
v -2.000000 2.750000 1.500000
v -4.687500 0.000000 -0.375000
v -3.437500 0.062500 1.437500
v -1.250000 0.062500 2.062500
v 0.312500 -0.000001 3.312500
v 1.812500 0.062499 3.562500
v 3.125000 0.124999 3.187500
v 2.375000 2.375000 3.437500
v -1.750000 0.000000 -1.250000
v -1.250000 0.062500 2.062500
v -3.437500 0.062500 1.437500
v -4.687500 0.000000 -0.375000
v 4.562500 0.062500 -0.437500
v 3.500000 0.062500 1.375000
v 1.375000 0.062500 2.062500
v 1.562500 0.062500 -1.250000
vt 1.000000 0.000000
vt 0.000000 0.000000
vt 0.000000 1.000000
vt 1.000000 1.000000
vt 0.000000 1.000000
vt 0.000000 0.000000
vt 1.000000 1.000000
vt 0.537601 0.725825
vt 0.539752 0.726335
vt 0.536588 0.726722
vt 0.672736 0.618645
vt 0.720513 0.618645
vt 0.695973 0.635258
vt 0.588131 0.805903
vt 0.700509 0.817280
vt 0.550491 0.817280
vt 0.382687 0.742011
vt 0.322095 0.889820
vt 0.344712 0.749078
vt 0.672843 0.722763
vt 0.705158 0.750941
vt 0.662875 0.716575
vt 0.621414 0.685092
vt 0.578793 0.691985
vt 0.620953 0.669203
vt 0.599992 0.693681
vt 0.777391 0.693681
vt 0.563587 0.689920
vt 0.400313 0.618645
vt 0.400313 0.669513
vt 0.369979 0.714933
vt 0.495068 0.758159
vt 0.400676 0.758315
vt 0.424810 0.759269
vt 0.705158 0.694559
vt 0.612481 0.694559
vt 0.649031 0.723942
vt 0.612481 0.749832
vt 0.662511 0.717108
vt 0.501788 0.822785
vt 0.521570 0.803085
vt 0.548960 0.822785
vt 0.430909 0.728895
vt 0.432335 0.730328
vt 0.435494 0.729768
vt 0.604586 0.841541
vt 0.631496 0.832998
vt 0.605538 0.819163
vt 0.418621 0.659405
vt 0.400676 0.618645
vt 0.477710 0.646665
vt 0.439739 0.776744
vt 0.550127 0.776744
vt 0.467874 0.802924
vt 0.471095 0.676913
vt 0.400676 0.694398
vt 0.225150 0.655074
vt 0.299568 0.763960
vt 0.292916 0.791294
vt 0.225922 0.618645
vt 0.400676 0.803085
vt 0.453947 0.803085
vt 0.501425 0.813487
vt 0.444874 0.829422
vt 0.254703 0.661079
vt 0.261487 0.764858
vt 0.506743 0.756588
vt 0.506743 0.694559
vt 0.582898 0.650116
vt 0.563587 0.618645
vt 0.672372 0.618645
vt 0.648398 0.669042
vt 0.262666 0.696180
vt 0.237416 0.749776
vt 0.234550 0.684061
vt 0.321731 0.747124
vt 0.550491 0.758159
vt 0.623812 0.768724
vt 0.666624 0.798504
vt 0.550491 0.805742
vt 0.400676 0.694559
vt 0.506379 0.734983
vt 0.612117 0.723124
vt 0.400676 0.757998
vt 0.666988 0.789097
vt 0.696009 0.769284
vt 0.736731 0.758159
vt 0.736731 0.789809
vt 0.321731 0.874929
vt 0.563223 0.672223
vt 0.748495 0.118574
vt 0.748495 0.382520
vt 0.659464 0.308131
vt 0.617936 0.152173
vt 0.882243 0.118574
vt 0.858510 0.278270
vt 0.778013 0.374306
vt 0.748550 0.118574
vn -0.7248 0.6823 -0.0958
vn 0.7095 0.6936 -0.1244
vn 0.0000 -1.0000 -0.0000
vn 0.3476 0.5536 -0.7568
vn 0.4575 0.7625 0.4575
vn -0.4787 -0.6977 0.5330
vn -0.5564 -0.4419 0.7037
vn -0.3179 0.8574 0.4046
vn 0.3799 0.9202 -0.0946
vn 0.4784 -0.6968 0.5345
vn 0.3840 0.4320 -0.8160
vn -0.3208 0.4111 -0.8533
vn 0.4626 -0.4252 0.7780
vn -0.5246 0.6106 -0.5934
vn -0.2969 0.5116 -0.8063
vn -0.1455 0.9701 0.1940
vn -0.0000 1.0000 0.0000
vn 0.6349 0.6753 -0.3752
vn -0.5940 -0.0435 0.8033
vn -0.3764 0.9241 -0.0661
vn 0.0039 0.9930 0.1184
vn -0.0464 0.3170 -0.9473
vn -0.1943 0.4755 -0.8580
vn -0.0209 0.9998 -0.0039
vn 0.1632 0.4809 -0.8614
vn 0.3604 -0.6844 -0.6338
vn 0.7494 0.2474 -0.6141
vn 0.0000 -0.6883 0.7255
vn -0.7439 0.2633 -0.6143
vn 0.7920 0.6086 0.0488
vn 0.0543 0.3237 -0.9446
vn 0.6771 -0.2081 -0.7059
vn -0.2384 -0.3499 0.9059
vn -0.7524 -0.2259 -0.6187
vn -0.0012 0.9997 -0.0240
vn 0.2216 -0.3613 0.9057
vn 0.5772 -0.6556 0.4869
vn -0.8343 0.4702 -0.2877
vn 0.9640 0.1562 0.2154
vn -0.5731 -0.6504 0.4985
vn -0.7920 0.6054 0.0790
vn 0.5846 0.3133 0.7484
vn -0.2822 -0.6794 -0.6773
vn -0.6404 0.2573 0.7237
vn -0.9717 0.1701 0.1636
vn -0.0457 0.9985 -0.0308
vn 0.8236 0.4372 -0.3614
vn 0.5214 0.8114 -0.2640
vn 0.3884 0.1170 0.9140
vn -0.5375 0.7956 -0.2795
vn 0.0012 -0.9997 0.0240
usemtl tex0
s off
f 15/47/17 16/48/17 17/49/17 18/50/17
f 19/51/18 20/52/18 15/47/18 21/53/18
usemtl froglet_green
f 22/54/19 23/55/19 24/56/19
f 25/57/20 26/58/20 27/59/20
f 28/60/21 29/61/21 30/62/21
f 31/63/22 32/64/22 33/65/22
f 34/66/23 25/67/23 26/68/23
f 35/69/19 36/70/19 37/71/19
f 38/72/24 39/73/24 40/74/24
f 39/75/25 38/76/25 41/77/25
f 42/78/26 32/79/26 43/80/26
f 25/67/27 34/66/27 27/81/27
f 44/82/28 45/83/28 46/84/28
f 47/85/29 46/84/29 45/83/29
f 45/83/30 44/82/30 47/85/30
f 44/86/31 47/87/31 46/88/31
f 48/89/32 49/90/32 50/91/32
f 51/92/33 52/93/33 53/94/33
f 26/68/34 27/81/34 34/66/34
f 54/95/35 55/96/35 56/97/35
f 30/98/36 29/99/36 57/100/36
f 54/95/37 58/101/37 59/102/37
f 32/79/38 57/100/38 29/99/38 43/80/38
f 60/103/39 45/104/39 61/105/39 32/106/39
f 62/107/40 63/108/40 64/109/40 48/110/40
f 65/111/41 32/106/41 61/105/41 34/112/41
f 22/54/42 24/56/42 25/113/42 27/114/42
f 66/115/33 67/116/33 51/117/33 68/118/33
f 69/119/43 65/111/43 34/112/43 70/120/43
f 71/121/44 69/119/44 70/120/44 72/122/44
f 45/104/45 60/103/45 71/121/45 72/122/45
f 38/76/46 33/65/46 32/64/46 41/77/46
f 39/75/47 41/77/47 32/64/47 31/63/47
f 53/94/48 51/92/48 29/61/48 28/60/48
f 35/69/49 38/72/49 40/74/49 36/70/49
f 37/71/50 36/70/50 40/74/50 39/73/50
f 73/123/51 74/124/51 75/125/51 37/126/51
f 53/94/52 28/60/52 30/62/52 52/93/52
f 42/78/53 43/80/53 29/99/53 30/98/53
f 52/93/54 30/62/54 29/61/54 51/92/54
f 50/91/55 48/89/55 46/127/55 47/128/55
f 31/63/56 33/65/56 38/76/56 39/75/56
f 42/78/57 30/98/57 57/100/57 32/79/57
f 23/55/58 22/54/58 27/114/58 26/129/58
f 49/90/59 44/130/59 46/127/59 48/89/59
f 49/90/60 50/91/60 47/128/60 44/130/60
f 24/56/61 23/55/61 26/129/61 25/113/61
f 76/131/62 77/132/62 78/133/62 24/134/62
f 35/69/63 37/71/63 39/73/63 38/72/63
f 70/120/64 34/112/64 61/105/64 59/135/64
f 79/136/65 58/101/65 54/95/65 56/97/65
f 61/105/66 45/104/66 72/122/66 59/135/66
f 80/137/67 81/138/67 82/139/67 83/140/67
f 84/141/19 85/142/19 86/143/19 87/144/19
