# Blender v2.79 (sub 0) OBJ File: ''
# www.blender.org
mtllib OPT_CARD_1.mtl
o OPT_CARD_1
v 4.062500 -4.781250 -0.656252
v 4.062500 5.953125 -0.656248
v 4.062500 5.953125 0.656252
v 4.062500 -4.796875 0.656248
v -4.062500 -4.781250 0.656248
v -4.062500 5.953125 0.656252
v -4.062500 5.953125 -0.656248
v -4.062500 -4.781250 -0.656252
v 3.187500 -5.843750 0.656248
v 3.203125 -5.843750 -0.656252
v -3.218750 -5.843750 0.656248
v -3.234375 -5.843750 -0.656252
vt 1.000000 0.921569
vt 1.000000 0.000000
vt 0.000000 0.000000
vt 0.000000 0.921569
vt 0.000000 0.898039
vt 0.000000 0.000000
vt 0.000000 0.000000
vt 0.000000 0.898039
vt 1.000000 0.898039
vt 1.000000 0.901961
vt 0.870588 0.996078
vt 0.874510 0.996078
vt 0.129412 0.996078
vt 0.125490 0.996078
vt 1.000000 0.000000
vt 0.000000 0.000000
vt 0.000000 1.000000
vt 1.000000 1.000000
vt 1.000000 0.000000
vt 0.000000 1.000000
vt 1.000000 1.000000
vt 1.000000 0.000000
vn 1.0000 -0.0000 0.0000
vn -1.0000 0.0000 0.0000
vn 0.7724 -0.6351 0.0008
vn -0.7859 -0.6183 0.0047
vn 0.0000 -1.0000 0.0000
vn 0.0000 1.0000 0.0000
vn 0.0000 0.0000 -1.0000
vn 0.0000 -0.0000 1.0000
usemtl tex1615
s 1
f 1/1/1 2/2/1 3/3/1 4/4/1
f 5/5/2 6/6/2 7/7/2 8/8/2
f 1/9/3 4/10/3 9/11/3 10/12/3
f 11/13/4 5/5/4 8/8/4 12/14/4
usemtl tex1616
f 9/15/5 11/16/5 12/17/5 10/18/5
usemtl tex1618
f 6/19/6 3/3/6 2/20/6 7/21/6
usemtl tex1614
f 8/8/7 7/7/7 2/2/7 1/9/7
f 8/8/7 1/9/7 10/12/7 12/14/7
usemtl tex1619
f 4/10/8 3/22/8 6/6/8 5/5/8
f 4/10/8 5/5/8 11/13/8 9/11/8
