# Blender v2.79 (sub 0) OBJ File: ''
# www.blender.org
mtllib JUN_PIRANHA.mtl
o JUN_PIRANHA
v 2.500000 3.437500 -3.375000
v 0.000000 1.125001 -4.062500
v 0.000000 3.375002 -9.749999
v -2.500000 3.375000 -3.375000
v 0.000000 6.437500 -4.062499
v -0.062500 4.312501 -9.749999
v -1.375000 6.187500 3.375001
v 0.000000 6.562499 5.062501
v 0.000000 9.187499 3.125001
v 1.375000 6.187500 3.375001
v 0.000000 8.687500 -1.687499
v 3.125000 2.875000 -1.187500
v -3.187500 2.875000 -1.187500
v 2.437500 3.437501 -4.312500
v 0.000000 6.437500 -4.062499
v 0.000000 1.125001 -4.062500
v 0.000000 -0.375000 -0.625000
v -2.437500 3.375001 -4.312500
v 0.000000 0.062499 3.687500
v 0.000000 1.062499 5.812500
v -2.375000 1.812500 2.375000
v 2.375000 1.812500 2.375000
v 0.000000 -0.375000 -0.625000
v 3.125000 2.812500 -1.187500
v -3.125000 2.812500 -1.187500
v -2.312500 2.437500 -3.437500
v 0.000000 0.125000 -2.500000
v 2.250000 2.500000 -3.375000
v -1.687500 5.500000 2.250001
v -2.000000 4.625000 1.125001
v -2.750000 3.812500 2.187501
v 1.250000 5.249999 4.812501
v 0.750000 6.312500 4.062501
v 0.125000 6.437499 4.437501
v 2.187500 4.750000 3.875001
v 1.562500 5.500000 2.687501
v 1.250000 6.062500 3.312501
v -1.250000 6.062500 3.312501
v -1.562500 5.500000 2.625001
v -2.312500 4.562500 3.687501
v -0.125000 6.437499 4.437501
v -0.750000 6.375000 4.062501
v -1.062500 5.312499 5.000001
v 2.625000 3.937500 2.375001
v 1.937500 4.625000 1.125001
v 1.687500 5.500000 2.250001
v 0.625000 1.437499 4.625000
v 1.187500 1.499999 3.812500
v 0.687500 2.437499 4.000000
v -0.625000 2.437499 4.187500
v -1.250000 1.499999 3.812500
v -0.687500 1.437499 4.625000
v 0.000000 4.750002 -13.187499
v 0.000000 9.125003 -15.624998
v -0.062500 4.312501 -9.749999
v 0.000000 3.375002 -9.749999
v 0.062500 1.062503 -15.187500
v -2.437500 3.437501 -4.375000
v -6.250000 2.687501 -4.812500
v -3.187500 2.812500 -1.187500
v 6.250000 2.687501 -4.812500
v 2.437500 3.437501 -4.375000
v 3.187500 2.812500 -1.187500
v 0.000000 10.500001 -4.812498
v -2.500000 3.375001 -4.562500
vt 0.426515 0.366599
vt 0.262604 0.362229
vt 0.337828 0.323282
vt 0.224082 0.295171
vt 0.426515 0.281146
vt 0.336399 0.317911
vt 0.556863 0.218279
vt 0.531968 0.268371
vt 0.453034 0.235576
vt 0.417018 0.281081
vt 0.403667 0.215063
vt 0.232919 0.227014
vt 0.424672 0.140752
vt 0.319534 0.195044
vt 0.364624 0.198876
vt 0.311089 0.176588
vt 0.224082 0.140752
vt 0.353879 0.179306
vt 0.665563 0.216231
vt 0.665107 0.241989
vt 0.743674 0.207661
vt 0.587764 0.207146
vt 0.666304 0.174410
vt 0.557014 0.164889
vt 0.775918 0.165612
vt 0.750103 0.140752
vt 0.666671 0.153671
vt 0.583669 0.140752
vt 0.231841 0.727466
vt 0.170093 0.734409
vt 0.170093 0.669103
vt 0.231922 0.729260
vt 0.285351 0.703446
vt 0.303391 0.729260
vt 0.247956 0.768727
vt 0.303758 0.734489
vt 0.320703 0.768727
vt 0.311816 0.669103
vt 0.290978 0.703366
vt 0.231922 0.669103
vt 0.278998 0.827965
vt 0.247956 0.830602
vt 0.247956 0.768808
vt 0.170093 0.785840
vt 0.213812 0.734489
vt 0.247876 0.785840
vt 0.170093 0.828089
vt 0.170093 0.785920
vt 0.213117 0.802048
vt 0.325639 0.768808
vt 0.293990 0.808252
vt 0.279079 0.768808
vt 0.799494 0.707885
vt 0.856252 0.680163
vt 0.791650 0.750888
vt 0.754423 0.680163
vt 0.779818 0.750232
vt 0.804178 0.799137
vt 0.754862 0.799137
vt 0.797941 0.757557
vt 0.675541 0.799570
vt 0.727645 0.799570
vt 0.698010 0.834179
vt 0.754423 0.799201
vt 0.803739 0.799201
vt 0.760660 0.840782
vt 0.754423 0.750951
vt 0.744171 0.755605
vt 0.713525 0.799506
vt 0.684269 0.754668
vt 0.675541 0.707857
vt 0.754359 0.709091
vt 0.687012 0.680163
vt 0.744567 0.680163
vn 0.9410 -0.0857 -0.3272
vn 0.0042 -0.9299 -0.3678
vn 0.0125 0.5894 -0.8077
vn -0.9416 -0.1047 -0.3201
vn -0.0058 0.8804 -0.4741
vn -0.0147 0.8804 -0.4740
vn -0.8731 0.4509 0.1854
vn 0.0000 0.5938 0.8046
vn 0.0020 0.9453 0.3262
vn 0.8752 0.4476 0.1834
vn 0.4549 0.8667 -0.2044
vn 0.9634 -0.0313 -0.2661
vn -0.9619 -0.0265 -0.2722
vn 0.9372 -0.0621 -0.3432
vn 0.3688 0.8239 -0.4302
vn 0.0061 -0.9248 -0.3803
vn 0.0038 -0.9248 -0.3803
vn -0.9319 -0.0752 -0.3548
vn 0.0000 -0.9654 0.2607
vn 0.0000 0.0171 0.9998
vn -0.8783 0.2521 0.4061
vn 0.8783 0.2521 0.4061
vn -0.5797 -0.8145 0.0220
vn -0.0653 0.9841 0.1653
vn -0.9120 0.4102 -0.0080
vn -0.7877 0.4841 -0.3809
vn -0.9998 -0.0093 0.0169
vn -0.3461 0.9382 0.0000
vn -0.8292 0.5288 -0.1809
vn 0.4838 0.6451 0.5914
vn 0.8277 0.5546 -0.0853
vn -0.8230 0.5616 -0.0854
vn -0.4321 0.6648 0.6094
vn 0.8478 0.4931 -0.1951
vn 0.7732 0.3007 0.5584
vn -0.7754 0.2932 0.5593
vn 0.9924 -0.0776 0.0949
vn 0.9997 0.0109 0.0196
vn -0.9995 -0.0290 -0.0041
vn -0.9997 -0.0230 -0.0092
vn -0.2066 0.9681 0.1412
vn -0.1384 -0.9788 0.1507
vn -0.5981 0.6392 0.4833
vn 1.0000 0.0000 0.0000
vn -0.2066 -0.9681 -0.1412
vn 0.1869 -0.9745 -0.1243
usemtl piranha_colors.png
s 1
f 1/1/1 2/2/2 3/3/3
f 3/3/3 2/2/2 4/4/4
f 5/5/5 1/1/1 3/3/3 6/6/6
f 5/5/5 6/6/6 3/3/3 4/4/4
f 7/7/7 8/8/8 9/9/9
f 10/10/10 9/9/9 8/8/8
f 11/11/11 9/9/9 10/10/10 12/12/12
f 11/11/11 13/13/13 7/7/7 9/9/9
f 14/14/14 15/15/15 11/11/11 12/12/12
f 16/16/16 14/14/14 12/12/12 17/17/17
f 15/15/15 18/18/18 13/13/13 11/11/11
f 18/18/18 16/16/16 17/17/17 13/13/13
f 19/19/19 20/20/20 21/21/21
f 22/22/22 20/20/20 19/19/19
f 22/22/22 19/19/19 23/23/23 24/24/24
f 19/19/19 21/21/21 25/25/25 23/23/23
f 26/26/26 27/27/27 23/23/23 25/25/25
f 28/28/28 27/27/27 23/23/23 24/24/24
f 29/29/29 30/30/29 31/31/29
f 32/32/30 33/33/30 34/34/30
f 35/35/31 36/36/31 37/37/31
f 38/38/32 39/39/32 40/40/32
f 41/41/33 42/42/33 43/43/33
f 44/44/34 45/45/34 46/46/34
f 47/47/35 48/48/35 49/49/35
f 50/50/36 51/51/36 52/52/36
f 53/53/37 54/54/38 55/55/39
f 57/56/40 56/57/40 55/55/39 53/53/37
f 58/58/41 59/59/42 60/60/43
f 15/61/15 64/62/44 11/63/11
f 62/64/45 61/65/45 63/66/45
f 60/60/43 59/59/42 65/67/46
f 21/68/21 20/69/20 22/70/22
f 24/71/24 25/72/25 21/68/21 22/70/22
f 28/73/28 26/74/26 25/72/25 24/71/24
