# Blender v2.79 (sub 0) OBJ File: ''
# www.blender.org
mtllib racoon.mtl
o SWP_RACCOON1
v -0.675000 0.112500 0.956250
v -0.375000 0.656250 1.181250
v -0.562500 0.712500 1.087500
v -0.693750 0.581250 0.581250
v -1.012500 0.093750 1.031250
v -0.862500 0.093750 1.275000
v -0.600000 0.093750 0.975000
v -0.693750 0.112500 0.900000
v -0.562500 0.675000 1.256250
v -0.375000 0.618750 1.368750
v -0.487500 1.125000 1.312500
v -0.487500 0.581250 0.675000
v -0.693750 0.543750 0.768750
v -0.693750 1.275000 0.656250
v 0.562500 0.731250 0.918750
v 0.393750 0.675000 1.031250
v 0.693750 0.131250 0.731250
v 0.693750 0.600000 0.431250
v 0.862500 0.112500 1.125000
v 1.031250 0.112500 0.862500
v 0.600000 0.112500 0.806250
v 0.393750 0.675000 1.143750
v 0.562500 0.712500 1.031250
v 0.487500 1.181250 1.087500
v 0.693750 0.600000 0.543750
v 0.487500 0.618750 0.450000
v 0.693750 1.331250 0.431250
v 0.656250 0.393750 -0.375000
v 0.975000 1.256250 0.187500
v 0.862500 0.431250 -0.225000
v 0.787500 0.450000 0.487500
v 0.637500 0.693750 0.675000
v 1.068750 0.131250 -0.431250
v 1.218750 0.150000 -0.656250
v 0.862500 0.150000 -0.918750
v 0.768750 0.150000 -0.881250
v 0.806250 0.375000 -0.937500
v 0.862500 0.618750 -0.637500
v 0.787500 0.656250 0.075000
v 0.750000 0.375000 -0.937500
v 0.656250 0.600000 -0.787500
v -1.237500 0.168750 -0.806250
v -1.106250 0.168750 -0.581250
v -0.750000 0.187500 -1.012500
v -0.843750 0.187500 -1.050000
v -0.750000 0.412500 -1.087500
v -0.787500 0.393750 -1.068750
v -0.862500 0.656250 -0.768750
v -0.656250 0.618750 -0.918750
v -0.787500 0.693750 -0.037500
v -0.787500 0.450000 0.506250
v -0.618750 0.693750 0.693750
v -0.956250 1.256250 0.206250
v -0.862500 0.412500 -0.206250
v -0.768750 0.393750 -0.281250
v -0.656250 0.375000 -0.356250
v -0.225000 0.905312 4.959127
v -0.356250 1.561563 3.946627
v 0.300000 1.580312 3.946627
v 0.168750 0.905312 4.959127
v 0.750000 2.349063 3.440377
v 1.650000 1.130313 3.102877
v -0.825000 2.349063 3.440377
v -1.706250 1.111563 3.102877
v 0.618750 0.999062 3.909127
v -0.356250 1.561563 3.946627
v -0.656250 0.980312 3.909127
v 0.300000 1.580312 3.946627
v 1.050000 1.505313 2.615377
v 0.787500 2.049063 3.234127
v 0.993750 2.274063 2.915378
v -0.618750 2.049063 3.234127
v -0.843750 2.292813 2.915378
v -1.143750 1.486563 2.615377
vt 0.682265 0.574310
vt 0.788680 0.574310
vt 0.777276 0.607365
vt 0.713177 0.665998
vt 0.890051 0.704691
vt 0.876591 0.660589
vt 0.940814 0.660589
vt 0.939961 0.680148
vt 0.589059 0.507125
vt 0.587502 0.470784
vt 0.663113 0.507468
vt 0.551655 0.620779
vt 0.554941 0.583929
vt 0.668298 0.620779
vt 0.919399 0.375691
vt 0.894619 0.398836
vt 0.854265 0.295309
vt 0.943926 0.295309
vt 0.940014 0.610070
vt 0.940014 0.660345
vt 0.882761 0.648729
vt 0.876591 0.630150
vt 0.719516 0.574066
vt 0.718895 0.540843
vt 0.795909 0.540502
vt 0.688219 0.463363
vt 0.682265 0.427225
vt 0.801805 0.427225
vt 0.682265 0.320964
vt 0.854021 0.295309
vt 0.713863 0.347911
vt 0.798906 0.426011
vt 0.854021 0.426981
vt 0.842338 0.694738
vt 0.802049 0.677887
vt 0.826416 0.610888
vt 0.842338 0.607554
vt 0.802049 0.427225
vt 0.837336 0.439879
vt 0.849039 0.501711
vt 0.802049 0.607310
vt 0.845707 0.436407
vt 0.876347 0.470864
vt 0.566127 0.660415
vt 0.551655 0.621023
vt 0.641824 0.621023
vt 0.636868 0.636517
vt 0.908301 0.434481
vt 0.914997 0.437630
vt 0.900213 0.501285
vt 0.876591 0.467128
vt 0.947968 0.609826
vt 0.947968 0.427225
vt 0.671890 0.396438
vt 0.682021 0.452036
vt 0.551655 0.470540
vt 0.583582 0.321867
vt 0.569127 0.308664
vt 0.551655 0.295309
vt 0.084264 0.658581
vt 0.037810 0.659309
vt 0.020055 0.515988
vt 0.097520 0.515988
vt 0.097627 0.566023
vt 0.199637 0.566023
vt 0.182028 0.615029
vt 0.214130 0.515988
vt 0.192829 0.565916
vt 0.097627 0.515988
vt 0.215159 0.405415
vt 0.159851 0.515881
vt 0.020055 0.396816
vt 0.167945 0.344201
vt 0.292603 0.407264
vt 0.345692 0.515878
vt 0.342159 0.346584
vt 0.487789 0.400328
vn -0.4695 -0.1038 0.8768
vn -0.9671 0.1341 0.2160
vn 0.0073 0.9986 0.0532
vn -0.5189 -0.0203 0.8546
vn -0.3885 -0.1401 -0.9107
vn -0.9561 0.0742 0.2834
vn 0.5789 -0.1252 0.8057
vn 0.9648 0.1418 0.2216
vn -0.0066 0.9987 0.0504
vn 0.5563 -0.0107 0.8309
vn 0.3992 -0.1394 -0.9062
vn 0.9559 0.0731 0.2845
vn 0.5167 0.3255 -0.7919
vn 0.9543 -0.1201 0.2736
vn -0.0244 0.9985 0.0487
vn 0.9997 -0.0133 0.0222
vn 0.3333 0.6667 -0.6667
vn -0.0282 0.9993 0.0242
vn -0.3939 0.6578 -0.6420
vn -0.9987 -0.0484 0.0141
vn -0.9534 -0.0927 0.2872
vn -0.5136 0.3348 -0.7900
vn -0.0149 0.8355 0.5493
vn -0.8704 0.1224 -0.4768
vn -0.7901 0.0673 0.6092
vn -0.5668 0.2035 0.7983
vn -0.0046 0.5453 0.8382
vn 0.5687 0.2199 0.7926
usemtl racoon_colors.png
s off
f 1/1/1 2/2/1 3/3/1
f 1/1/2 3/3/2 4/4/2
f 5/5/3 6/6/3 7/7/3 8/8/3
f 9/9/4 10/10/4 11/11/4
f 12/12/5 13/13/5 14/14/5
f 13/13/6 9/9/6 11/11/6 14/14/6
f 15/15/7 16/16/7 17/17/7
f 18/18/8 15/15/8 17/17/8
f 19/19/9 20/20/9 17/21/9 21/22/9
f 22/23/10 23/24/10 24/25/10
f 25/26/11 26/27/11 27/28/11
f 23/24/12 25/26/12 27/28/12 24/25/12
f 28/29/13 29/30/13 30/31/13
f 31/32/14 30/31/14 29/30/14 32/33/14
f 33/34/15 34/35/15 35/36/15 36/37/15
f 35/38/16 37/39/16 38/40/16 39/41/16
f 37/39/17 40/42/17 41/43/17 38/40/17
f 42/44/18 43/45/18 44/46/18 45/47/18
f 46/48/19 47/49/19 48/50/19 49/51/19
f 50/52/20 48/50/20 47/49/20 45/53/20
f 51/54/21 52/55/21 53/56/21 54/57/21
f 55/58/22 54/57/22 53/56/22 56/59/22
f 57/60/23 60/61/23 59/62/23 58/63/23
f 69/64/24 70/65/24 71/66/24
f 72/67/25 73/68/25 74/69/25
f 66/70/26 63/71/26 64/72/26 67/73/26
f 68/74/27 61/75/27 63/71/27 66/70/27
f 61/75/28 68/74/28 65/76/28 62/77/28
o SWP_RACCOON
v 0.187500 1.500000 -0.993750
v 0.975000 1.481250 -0.225000
v 0.637500 0.600000 -0.806250
v -0.956250 1.481250 -0.225000
v -0.187500 1.500000 -0.993750
v -0.637500 0.600000 -0.806250
v -0.487500 2.118750 -0.393750
v -0.112500 1.743750 -0.937500
v 0.487500 2.118750 -0.393750
v 0.112500 1.743750 -0.937500
v -0.356250 0.637500 1.312500
v -0.487500 1.143750 1.275000
v -0.300000 1.687500 1.087500
v 0.487500 1.143750 1.275000
v 0.356250 0.637500 1.312500
v 0.300000 1.687500 1.087500
v -0.037500 1.537501 -3.468750
v -0.543750 1.050001 -3.337500
v -0.150000 1.425000 -0.375000
v -0.018750 1.425000 -0.375000
v 0.431250 1.050001 -3.356250
v 0.056250 1.425000 -0.375000
v 0.918750 0.318751 -3.206250
v 0.131250 1.181250 -0.431250
v -0.993750 0.318751 -3.187500
v -0.243750 1.181250 -0.431250
v -0.037500 0.356251 -4.218750
v 0.281250 1.692813 1.115377
v 0.337500 1.786563 1.621627
v 0.487500 1.299063 1.527877
v 0.450000 1.149063 1.284127
v -0.318750 1.692813 1.115377
v -0.356250 1.786563 1.621627
v -0.506250 1.149063 1.284127
v -0.543750 1.299063 1.527877
v -0.393750 0.624063 1.340377
v -0.262500 0.774063 1.565377
v 0.225000 0.774063 1.565377
v 0.318750 0.624063 1.340377
v 0.750000 2.349063 3.440377
v 1.650000 1.130313 3.102877
v -0.825000 2.349063 3.440377
v -1.706250 1.111563 3.102877
v 0.618750 0.999062 3.909127
v 0.750000 0.417813 3.834127
v 1.050000 0.042813 2.840377
v -0.750000 0.417813 3.834127
v -0.225000 0.905312 4.959127
v -0.356250 1.561563 3.946627
v -0.656250 0.980312 3.909127
v 0.300000 1.580312 3.946627
v 0.168750 0.905312 4.959127
v -1.050000 0.024063 2.840377
vt 0.000000 0.827451
vt 0.000000 0.603922
vt 0.000000 0.756863
vt 0.541176 0.607843
vt 0.113725 0.827451
vt 0.364706 0.756863
vt 0.278431 0.674510
vt 0.066667 0.815686
vt 0.000000 0.670588
vt 0.000000 0.815686
vt 0.211765 0.129412
vt 0.278431 0.156863
vt 0.176471 0.219608
vt 0.000000 0.156863
vt 0.000000 0.129412
vt 0.000000 0.219608
vt 0.000000 0.219608
vt 0.000000 0.074510
vt 0.000000 0.090196
vt 0.000000 0.156863
vt 0.176471 0.219608
vt 0.196078 0.074510
vt 0.278431 0.156863
vt 0.298039 0.090196
vt 0.211765 0.129412
vt 0.145098 0.070588
vt 0.000000 0.066667
vt 0.000000 0.129412
vt 0.505882 0.619608
vt 0.662745 0.694118
vt 0.568627 0.000000
vt 0.533333 0.000000
vt 0.368627 0.690196
vt 0.501961 0.000000
vt 0.231373 0.807843
vt 0.478431 0.043137
vt 0.803922 0.811765
vt 0.596078 0.043137
vt 0.509804 1.000000
vt 0.984314 0.301961
vt 0.823529 0.976471
vt 1.000000 0.988235
vt 1.000000 0.388235
vt 0.000000 0.301961
vt 0.050980 0.976471
vt 0.000000 0.388235
vt 0.000000 0.988235
vt 1.000000 0.776471
vt 0.623529 0.733333
vt 0.686275 0.501961
vt 0.823529 0.325490
vt 1.000000 0.843137
vt 0.741176 0.200000
vt 0.000000 0.501961
vt 0.290196 0.713726
vt 0.176471 0.964706
vt 0.039216 0.733333
vt 0.482353 0.964706
vt 0.368627 0.713726
vt 0.000000 0.321569
vt 0.000000 0.772549
vt 0.000000 0.843137
vt 0.000000 0.203922
vn 0.6871 0.1979 -0.6991
vn -0.6948 0.2037 -0.6898
vn -0.6671 0.3261 -0.6698
vn 0.0000 0.8232 -0.5677
vn 0.6586 0.3343 -0.6741
vn -0.9187 -0.3609 0.1605
vn -0.7881 0.5315 0.3105
vn 0.9135 -0.3726 0.1632
vn 0.7796 0.5408 0.3160
vn 0.0000 0.9601 0.2795
vn 0.9389 0.2752 -0.2068
vn 0.0000 0.9833 -0.1821
vn -0.9258 0.3223 -0.1973
vn -0.8813 -0.2978 0.3668
vn 0.8999 -0.3101 0.3065
vn -0.6065 0.7950 0.0069
vn 0.6667 0.7453 0.0069
vn 0.8616 0.5034 0.0658
vn -0.8686 0.4909 0.0675
vn -0.6562 0.3621 -0.6620
vn 0.6557 0.3731 -0.6564
vn 0.7305 0.5514 -0.4030
vn 0.0000 0.9554 -0.2955
vn -0.7259 0.5522 -0.4099
vn 0.7382 -0.3267 0.5902
vn 0.7324 -0.3070 -0.6077
vn -0.8846 0.2669 0.3824
vn 0.8677 0.2973 0.3984
vn -0.7223 -0.3356 -0.6046
vn -0.7181 -0.3659 0.5920
usemtl tex129
s off
f 75/78/29 76/79/29 77/80/29
f 78/81/30 79/82/30 80/83/30
f 79/82/31 78/81/31 81/84/31 82/85/31
f 81/84/32 83/86/32 84/87/32 82/85/32
f 84/87/33 83/86/33 76/79/33 75/78/33
f 85/88/34 86/89/34 78/81/34 80/83/34
f 87/90/35 81/84/35 78/81/35 86/89/35
f 76/79/36 88/91/36 89/92/36 77/80/36
f 83/86/37 90/93/37 88/91/37 76/79/37
f 90/93/38 83/86/38 81/84/38 87/90/38
f 102/94/39 103/95/39 104/96/39 105/97/39
f 102/94/40 106/98/40 107/99/40 103/95/40
f 107/99/41 106/98/41 108/100/41 109/101/41
f 109/101/42 108/100/42 110/102/42 111/103/42
f 105/97/43 104/96/43 112/104/43 113/105/43
usemtl tex132
f 91/106/44 92/107/44 93/108/44 94/109/44
f 95/110/45 91/106/45 94/109/45 96/111/45
f 97/112/46 95/110/46 96/111/46 98/113/46
f 92/107/47 99/114/47 100/115/47 93/108/47
f 101/116/48 99/114/48 92/107/48 91/106/48
f 101/116/49 91/106/49 95/110/49 97/112/49
usemtl tex130
f 103/117/50 114/118/50 115/119/50 104/120/50
f 114/118/51 103/117/51 107/121/51 116/122/51
f 116/122/52 107/121/52 109/123/52 117/124/52
usemtl tex131
f 115/125/53 118/126/53 119/127/53 120/128/53
f 104/129/54 115/125/54 120/128/54 112/130/54
f 121/131/55 122/132/55 123/133/55 124/134/55
f 119/127/56 118/126/56 125/135/56 126/136/56
f 127/137/57 117/138/57 109/139/57 111/140/57
f 121/131/58 124/134/58 117/138/58 127/137/58
