# Blender v2.79 (sub 0) OBJ File: ''
# www.blender.org
mtllib frogger_croak_ball.mtl
o frogger_croak_ball
v -0.062500 -0.000001 5.187500
v -0.062500 -4.437500 2.624998
v 3.562500 -3.124999 1.874999
v 3.562500 0.000000 3.687500
v -0.062500 -4.437499 -2.562502
v 3.562500 -3.124998 -1.812500
v -0.062500 0.000003 -5.062500
v 3.562500 0.000003 -3.625000
v -0.062500 4.500001 -2.562498
v 3.562500 3.187502 -1.812499
v -0.062500 4.500000 2.625001
v 3.562500 3.187501 1.875000
v -3.687500 0.000000 3.687500
v -3.687500 -3.124999 1.874999
v -3.687500 -3.124998 -1.812500
v -3.687500 0.000003 -3.625000
v -3.687500 3.187502 -1.812499
v -3.687500 3.187501 1.875000
v 5.062500 0.000001 0.000000
v -5.250000 0.000001 0.000000
vt 0.290365 0.585659
vt 0.463557 0.585659
vt 0.463557 0.758851
vt 0.290365 0.758851
vt 0.290365 0.585659
vt 0.463557 0.585659
vt 0.463557 0.758851
vt 0.290365 0.758851
vt 0.290365 0.585659
vt 0.463557 0.585659
vt 0.463557 0.758851
vt 0.290365 0.758851
vt 0.290365 0.585659
vt 0.463557 0.585659
vt 0.463557 0.758851
vt 0.290365 0.758851
vt 0.290365 0.585659
vt 0.463557 0.585659
vt 0.463557 0.758851
vt 0.290365 0.758851
vt 0.290365 0.585659
vt 0.463557 0.585659
vt 0.463557 0.758851
vt 0.290365 0.758851
vt 0.290365 0.585659
vt 0.463557 0.585659
vt 0.463557 0.758851
vt 0.290365 0.758851
vt 0.290365 0.585659
vt 0.463557 0.585659
vt 0.463557 0.758851
vt 0.290365 0.758851
vt 0.290365 0.585659
vt 0.463557 0.585659
vt 0.463557 0.758851
vt 0.290365 0.758851
vt 0.290365 0.585659
vt 0.463557 0.585659
vt 0.463557 0.758851
vt 0.290365 0.758851
vt 0.290365 0.585659
vt 0.463557 0.585659
vt 0.463557 0.758851
vt 0.290365 0.758851
vt 0.290365 0.585659
vt 0.463557 0.585659
vt 0.463557 0.758851
vt 0.290365 0.758851
vt 0.290365 0.585659
vt 0.463557 0.585659
vt 0.463557 0.758851
vt 0.290365 0.585659
vt 0.463557 0.585659
vt 0.290365 0.585659
vt 0.463557 0.585659
vt 0.290365 0.585659
vt 0.463557 0.585659
vt 0.290365 0.585659
vt 0.463557 0.585659
vt 0.290365 0.585659
vt 0.463557 0.585659
vt 0.290365 0.585659
vt 0.463557 0.758851
vt 0.463557 0.758851
vt 0.463557 0.758851
vt 0.463557 0.758851
vt 0.463557 0.758851
vt 0.463557 0.758851
vn 0.3381 -0.4713 0.8146
vn 0.3404 -0.9403 -0.0000
vn 0.3318 -0.4673 -0.8195
vn 0.3318 0.4615 -0.8227
vn 0.3404 0.9403 0.0000
vn 0.3381 0.4655 0.8179
vn -0.3381 -0.4713 0.8146
vn -0.3404 -0.9403 -0.0000
vn -0.3318 -0.4673 -0.8195
vn -0.3318 0.4615 -0.8227
vn -0.3404 0.9403 0.0000
vn -0.3381 0.4655 0.8179
vn 0.9049 -0.2135 0.3681
vn 0.9015 -0.4327 -0.0000
vn 0.9021 -0.2165 -0.3733
vn 0.9029 0.2125 -0.3736
vn 0.9048 0.4258 0.0000
vn 0.9057 0.2095 0.3684
vn -0.8980 -0.2207 0.3805
vn -0.8944 -0.4472 -0.0000
vn -0.8950 -0.2238 -0.3858
vn -0.8959 0.2196 -0.3862
vn -0.8979 0.4402 0.0000
vn -0.8989 0.2166 0.3809
usemtl None
s 1
f 1/1/1 2/2/1 3/3/1 4/4/1
f 2/5/2 5/6/2 6/7/2 3/8/2
f 5/9/3 7/10/3 8/11/3 6/12/3
f 7/13/4 9/14/4 10/15/4 8/16/4
f 9/17/5 11/18/5 12/19/5 10/20/5
f 11/21/6 1/22/6 4/23/6 12/24/6
f 13/25/7 14/26/7 2/27/7 1/28/7
f 14/29/8 15/30/8 5/31/8 2/32/8
f 15/33/9 16/34/9 7/35/9 5/36/9
f 16/37/10 17/38/10 9/39/10 7/40/10
f 17/41/11 18/42/11 11/43/11 9/44/11
f 18/45/12 13/46/12 1/47/12 11/48/12
f 4/49/13 3/50/13 19/51/13
f 3/52/14 6/53/14 19/51/14
f 6/54/15 8/55/15 19/51/15
f 8/56/16 10/57/16 19/51/16
f 10/58/17 12/59/17 19/51/17
f 12/60/18 4/61/18 19/51/18
f 20/62/19 14/26/19 13/63/19
f 20/62/20 15/30/20 14/64/20
f 20/62/21 16/34/21 15/65/21
f 20/62/22 17/38/22 16/66/22
f 20/62/23 18/42/23 17/67/23
f 20/62/24 13/46/24 18/68/24
