# Wavefront OBJ file
# Exported by Misfit Model 3D 1.3.8
# Wed Dec 23 19:46:11 2015

mtllib lilypads.mtl

# 45 Vertices
v 3.8 0.7 0.6
v 0.0 0.8 0.6
v -3.3 2.0 5.9
v 3.2 0.7 2.0
v 0.5 0.8 -0.6
v -5.5 2.0 0.6
v 1.9 0.7 2.5
v 1.9 0.8 -1.1
v -3.3 2.0 -4.5
v 0.5 0.7 2.0
v 3.2 0.8 -0.6
v 1.9 2.0 -6.7
v 9.3 2.0 0.6
v 7.2 2.0 5.9
v 7.2 2.0 -4.5
v -4.4 0.3 13.1
v -7.2 0.3 7.0
v -0.3 0.3 8.0
v -2.4 0.3 11.4
v -14.1 0.3 6.0
v -1.6 0.3 2.8
v -8.2 0.3 13.9
v -6.2 0.3 0.0
v -12.8 0.3 11.2
v -11.4 0.3 1.4
v 0.6 0.3 -7.9
v -6.5 0.3 -9.4
v -1.1 0.3 -14.8
v 0.4 0.3 -10.7
v -11.9 0.3 -4.1
v -6.5 0.3 -17.1
v -1.1 0.3 -4.1
v -11.9 0.3 -14.8
v -6.5 0.3 -1.8
v -14.1 0.3 -9.4
v 5.8 0.3 -1.2
v 8.6 0.3 -4.4
v 12.3 0.3 2.2
v 14.4 0.3 -5.0
v 19.0 0.3 -1.4
v 19.6 0.3 4.3
v 15.9 0.3 8.9
v 10.1 0.3 9.5
v 5.6 0.3 5.8
v 5.2 0.3 1.5

# 186 Texture Coordinates
vt 0.151086 0.186339
vt 0.151086 0.186339
vt 0.151086 0.186339
vt 0.151086 0.186339
vt 0.151086 0.186339
vt 0.151086 0.186339
vt 0.151086 0.186339
vt 0.151086 0.186339
vt 0.151086 0.186339
vt 0.151086 0.186339
vt 0.151086 0.186339
vt 0.151086 0.186339
vt 0.151086 0.186339
vt 0.151086 0.186339
vt 0.151086 0.186339
vt 0.151086 0.186339
vt 0.151086 0.186339
vt 0.151086 0.186339
vt 0.151086 0.186339
vt 0.151086 0.186339
vt 0.151086 0.186339
vt 0.151086 0.186339
vt 0.151086 0.186339
vt 0.151086 0.186339
vt 0.151086 0.186339
vt 0.151086 0.186339
vt 0.151086 0.186339
vt 0.151086 0.186339
vt 0.151086 0.186339
vt 0.151086 0.186339
vt 0.151086 0.186339
vt 0.151086 0.186339
vt 0.151086 0.186339
vt 0.151086 0.186339
vt 0.151086 0.186339
vt 0.151086 0.186339
vt 0.151086 0.186339
vt 0.151086 0.186339
vt 0.151086 0.186339
vt 0.151086 0.186339
vt 0.151086 0.186339
vt 0.151086 0.186339
vt 0.770538 0.21152
vt 0.770538 0.21152
vt 0.770538 0.21152
vt 0.770538 0.21152
vt 0.770538 0.21152
vt 0.770538 0.21152
vt 0.770538 0.21152
vt 0.770538 0.21152
vt 0.770538 0.21152
vt 0.770538 0.21152
vt 0.770538 0.21152
vt 0.770538 0.21152
vt 0.770538 0.21152
vt 0.770538 0.21152
vt 0.770538 0.21152
vt 0.770538 0.21152
vt 0.770538 0.21152
vt 0.770538 0.21152
vt 0.770538 0.21152
vt 0.770538 0.21152
vt 0.770538 0.21152
vt 0.770538 0.21152
vt 0.770538 0.21152
vt 0.770538 0.21152
vt 0.770538 0.21152
vt 0.770538 0.21152
vt 0.770538 0.21152
vt 0.770538 0.21152
vt 0.770538 0.21152
vt 0.770538 0.21152
vt 0.770538 0.21152
vt 0.770538 0.21152
vt 0.770538 0.21152
vt 0.770538 0.21152
vt 0.770538 0.21152
vt 0.770538 0.21152
vt 0.770538 0.21152
vt 0.770538 0.21152
vt 0.770538 0.21152
vt 0.770538 0.21152
vt 0.770538 0.21152
vt 0.770538 0.21152
vt 0.770538 0.21152
vt 0.770538 0.21152
vt 0.770538 0.21152
vt 0.770538 0.21152
vt 0.770538 0.21152
vt 0.770538 0.21152
vt 0.770538 0.21152
vt 0.770538 0.21152
vt 0.770538 0.21152
vt 0.770538 0.21152
vt 0.770538 0.21152
vt 0.770538 0.21152
vt 0.770538 0.21152
vt 0.770538 0.21152
vt 0.770538 0.21152
vt 0.770538 0.21152
vt 0.770538 0.21152
vt 0.770538 0.21152
vt 0.770538 0.21152
vt 0.770538 0.21152
vt 0.770538 0.21152
vt 0.770538 0.21152
vt 0.770538 0.21152
vt 0.770538 0.21152
vt 0.770538 0.21152
vt 0.770538 0.21152
vt 0.770538 0.21152
vt 0.770538 0.21152
vt 0.770538 0.21152
vt 0.770538 0.21152
vt 0.770538 0.21152
vt 0.770538 0.21152
vt 0.770538 0.21152
vt 0.770538 0.21152
vt 0.770538 0.21152
vt 0.770538 0.21152
vt 0.770538 0.21152
vt 0.770538 0.21152
vt 0.770538 0.21152
vt 0.770538 0.21152
vt 0.770538 0.21152
vt 0.770538 0.21152
vt 0.770538 0.21152
vt 0.770538 0.21152
vt 0.770538 0.21152
vt 0.770538 0.21152
vt 0.770538 0.21152
vt 0.770538 0.21152
vt 0.770538 0.21152
vt 0.770538 0.21152
vt 0.770538 0.21152
vt 0.770538 0.21152
vt 0.770538 0.21152
vt 0.770538 0.21152
vt 0.770538 0.21152
vt 0.770538 0.21152
vt 0.770538 0.21152
vt 0.770538 0.21152
vt 0.770538 0.21152
vt 0.770538 0.21152
vt 0.770538 0.21152
vt 0.770538 0.21152
vt 0.770538 0.21152
vt 0.770538 0.21152
vt 0.770538 0.21152
vt 0.770538 0.21152
vt 0.770538 0.21152
vt 0.770538 0.21152
vt 0.770538 0.21152
vt 0.770538 0.21152
vt 0.770538 0.21152
vt 0.770538 0.21152
vt 0.770538 0.21152
vt 0.770538 0.21152
vt 0.770538 0.21152
vt 0.770538 0.21152
vt 0.770538 0.21152
vt 0.770538 0.21152
vt 0.770538 0.21152
vt 0.770538 0.21152
vt 0.770538 0.21152
vt 0.770538 0.21152
vt 0.770538 0.21152
vt 0.770538 0.21152
vt 0.770538 0.21152
vt 0.770538 0.21152
vt 0.770538 0.21152
vt 0.770538 0.21152
vt 0.770538 0.21152
vt 0.770538 0.21152
vt 0.770538 0.21152
vt 0.770538 0.21152
vt 0.770538 0.21152
vt 0.770538 0.21152
vt 0.770538 0.21152
vt 0.770538 0.21152
vt 0.770538 0.21152
vt 0.770538 0.21152
vt 0.770538 0.21152
vt 0.770538 0.21152
vt 0.770538 0.21152
vt 0.770538 0.21152

# 186 Vertex Normals
vn -0.019858 -0.999644 -0.017827
vn -0.019858 -0.999644 -0.017827
vn -0.13544 -0.985444 0.102748
vn 0.019858 0.999644 0.017827
vn 0.019858 0.999644 0.017827
vn 0.13544 0.985444 -0.102748
vn -0.0 -0.999614 -0.027767
vn -0.0 -0.999614 -0.027767
vn -0.166137 -0.985722 -0.027381
vn 0.0 0.999614 0.027767
vn 0.0 0.999614 0.027767
vn 0.166137 0.985722 0.027381
vn 0.017715 -0.999642 -0.020051
vn 0.017715 -0.999642 -0.020051
vn -0.098065 -0.985321 -0.139734
vn -0.017715 0.999642 0.020051
vn -0.017715 0.999642 0.020051
vn 0.098065 0.985321 0.139734
vn -0.02593 -0.985323 -0.16872
vn -0.02593 -0.985323 -0.16872
vn -0.02593 -0.985323 -0.16872
vn 0.02593 0.985323 0.16872
vn 0.02593 0.985323 0.16872
vn 0.02593 0.985323 0.16872
vn -0.019858 -0.999644 -0.017827
vn -0.019858 -0.999644 -0.017827
vn 0.096283 -0.985755 -0.1379
vn 0.019858 0.999644 0.017827
vn 0.019858 0.999644 0.017827
vn -0.096283 0.985755 0.1379
vn -0.0 -0.999614 -0.027767
vn -0.0 -0.999614 -0.027767
vn 0.166137 -0.985722 -0.027381
vn 0.0 0.999614 0.027767
vn 0.0 0.999614 0.027767
vn -0.166137 0.985722 0.027381
vn 0.017715 -0.999642 -0.020051
vn 0.017715 -0.999642 -0.020051
vn 0.133001 -0.986039 0.100191
vn -0.017715 0.999642 0.020051
vn -0.017715 0.999642 0.020051
vn -0.133001 0.986039 -0.100191
vn -0.0 -1.0 0.0
vn -0.0 -1.0 0.0
vn -0.0 -1.0 0.0
vn 0.0 1.0 0.0
vn 0.0 1.0 0.0
vn 0.0 1.0 0.0
vn -0.0 -1.0 0.0
vn 0.0 -1.0 0.0
vn -0.0 -1.0 0.0
vn 0.0 1.0 0.0
vn 0.0 1.0 0.0
vn 0.0 1.0 0.0
vn -0.0 -1.0 0.0
vn -0.0 -1.0 0.0
vn 0.0 -1.0 0.0
vn 0.0 1.0 0.0
vn 0.0 1.0 0.0
vn 0.0 1.0 0.0
vn -0.0 -1.0 0.0
vn 0.0 -1.0 0.0
vn -0.0 -1.0 0.0
vn 0.0 1.0 0.0
vn 0.0 1.0 0.0
vn 0.0 1.0 0.0
vn -0.0 -1.0 0.0
vn 0.0 -1.0 0.0
vn 0.0 -1.0 0.0
vn 0.0 1.0 0.0
vn 0.0 1.0 0.0
vn 0.0 1.0 0.0
vn -0.0 -1.0 0.0
vn -0.0 -1.0 0.0
vn 0.0 -1.0 0.0
vn 0.0 1.0 0.0
vn 0.0 1.0 0.0
vn 0.0 1.0 0.0
vn -0.0 -1.0 0.0
vn -0.0 -1.0 0.0
vn -0.0 -1.0 0.0
vn 0.0 1.0 0.0
vn 0.0 1.0 0.0
vn 0.0 1.0 0.0
vn -0.0 -1.0 0.0
vn -0.0 -1.0 0.0
vn -0.0 -1.0 0.0
vn 0.0 1.0 0.0
vn 0.0 1.0 0.0
vn 0.0 1.0 0.0
vn 0.0 -1.0 0.0
vn 0.0 -1.0 0.0
vn -0.0 -1.0 0.0
vn 0.0 1.0 0.0
vn 0.0 1.0 0.0
vn 0.0 1.0 0.0
vn 0.0 -1.0 0.0
vn 0.0 -1.0 0.0
vn 0.0 -1.0 0.0
vn 0.0 1.0 0.0
vn 0.0 1.0 0.0
vn 0.0 1.0 0.0
vn 0.0 -1.0 0.0
vn 0.0 -1.0 0.0
vn 0.0 -1.0 0.0
vn 0.0 1.0 0.0
vn 0.0 1.0 0.0
vn 0.0 1.0 0.0
vn 0.0 -1.0 0.0
vn 0.0 -1.0 0.0
vn 0.0 -1.0 0.0
vn -0.0 1.0 0.0
vn 0.0 1.0 0.0
vn 0.0 1.0 0.0
vn 0.0 -1.0 0.0
vn 0.0 -1.0 0.0
vn 0.0 -1.0 0.0
vn -0.0 1.0 0.0
vn 0.0 1.0 0.0
vn -0.0 1.0 0.0
vn 0.0 -1.0 0.0
vn 0.0 -1.0 0.0
vn 0.0 -1.0 0.0
vn 0.0 1.0 0.0
vn 0.0 1.0 0.0
vn -0.0 1.0 0.0
vn 0.0 -1.0 0.0
vn 0.0 -1.0 0.0
vn 0.0 -1.0 0.0
vn -0.0 1.0 0.0
vn 0.0 1.0 0.0
vn 0.0 1.0 0.0
vn 0.0 -1.0 0.0
vn -0.0 -1.0 0.0
vn 0.0 -1.0 0.0
vn -0.0 1.0 0.0
vn 0.0 1.0 0.0
vn -0.0 1.0 0.0
vn -0.0 -1.0 0.0
vn -0.0 -1.0 0.0
vn -0.0 -1.0 0.0
vn -0.0 1.0 0.0
vn -0.0 1.0 0.0
vn -0.0 1.0 0.0
vn -0.0 -1.0 0.0
vn 0.0 -1.0 0.0
vn -0.0 -1.0 0.0
vn -0.0 1.0 0.0
vn -0.0 1.0 0.0
vn -0.0 1.0 0.0
vn 0.0 -1.0 0.0
vn 0.0 -1.0 0.0
vn -0.0 -1.0 0.0
vn -0.0 1.0 0.0
vn -0.0 1.0 0.0
vn -0.0 1.0 0.0
vn 0.0 -1.0 0.0
vn 0.0 -1.0 0.0
vn -0.0 -1.0 0.0
vn -0.0 1.0 0.0
vn -0.0 1.0 0.0
vn -0.0 1.0 0.0
vn 0.0 -1.0 0.0
vn -0.0 -1.0 0.0
vn -0.0 -1.0 0.0
vn 0.0 1.0 0.0
vn -0.0 1.0 0.0
vn -0.0 1.0 0.0
vn -0.0 -1.0 0.0
vn -0.0 -1.0 0.0
vn -0.0 -1.0 0.0
vn 0.0 1.0 0.0
vn 0.0 1.0 0.0
vn -0.0 1.0 0.0
vn -0.0 -1.0 0.0
vn 0.0 -1.0 0.0
vn -0.0 -1.0 0.0
vn -0.0 1.0 0.0
vn 0.0 1.0 0.0
vn -0.0 1.0 0.0
vn 0.0 -1.0 0.0
vn 0.0 -1.0 0.0
vn -0.0 -1.0 0.0
vn -0.0 1.0 0.0
vn -0.0 1.0 0.0
vn -0.0 1.0 0.0

# rdmobj00, 62 grouped triangles

usemtl pads
o rdmobj00
g rdmobj00

f 5/1/1 4/2/2 3/3/3
f 4/4/4 5/5/5 3/6/6
f 8/7/7 7/8/8 6/9/9
f 7/10/10 8/11/11 6/12/12
f 11/13/13 10/14/14 9/15/15
f 10/16/16 11/17/17 9/18/18
f 1/19/19 2/20/20 12/21/21
f 2/22/22 1/23/23 12/24/24
f 4/25/25 5/26/26 15/27/27
f 5/28/28 4/29/29 15/30/30
f 7/31/31 8/32/32 13/33/33
f 8/34/34 7/35/35 13/36/36
f 10/37/37 11/38/38 14/39/39
f 11/40/40 10/41/41 14/42/42
f 17/43/43 18/44/44 19/45/45
f 18/46/46 17/47/47 19/48/48
f 17/49/49 21/50/50 18/51/51
f 21/52/52 17/53/53 18/54/54
f 17/55/55 23/56/56 21/57/57
f 23/58/58 17/59/59 21/60/60
f 17/61/61 25/62/62 23/63/63
f 25/64/64 17/65/65 23/66/66
f 17/67/67 20/68/68 25/69/69
f 20/70/70 17/71/71 25/72/72
f 17/73/73 24/74/74 20/75/75
f 24/76/76 17/77/77 20/78/78
f 17/79/79 22/80/80 24/81/81
f 22/82/82 17/83/83 24/84/84
f 17/85/85 16/86/86 22/87/87
f 16/88/88 17/89/89 22/90/90
f 27/91/91 28/92/92 29/93/93
f 28/94/94 27/95/95 29/96/96
f 27/97/97 31/98/98 28/99/99
f 31/100/100 27/101/101 28/102/102
f 27/103/103 33/104/104 31/105/105
f 33/106/106 27/107/107 31/108/108
f 27/109/109 35/110/110 33/111/111
f 35/112/112 27/113/113 33/114/114
f 27/115/115 30/116/116 35/117/117
f 30/118/118 27/119/119 35/120/120
f 27/121/121 34/122/122 30/123/123
f 34/124/124 27/125/125 30/126/126
f 27/127/127 32/128/128 34/129/129
f 32/130/130 27/131/131 34/132/132
f 27/133/133 26/134/134 32/135/135
f 26/136/136 27/137/137 32/138/138
f 36/139/139 37/140/140 38/141/141
f 37/142/142 36/143/143 38/144/144
f 37/145/145 39/146/146 38/147/147
f 39/148/148 37/149/149 38/150/150
f 39/151/151 40/152/152 38/153/153
f 40/154/154 39/155/155 38/156/156
f 40/157/157 41/158/158 38/159/159
f 41/160/160 40/161/161 38/162/162
f 41/163/163 42/164/164 38/165/165
f 42/166/166 41/167/167 38/168/168
f 42/169/169 43/170/170 38/171/171
f 43/172/172 42/173/173 38/174/174
f 43/175/175 44/176/176 38/177/177
f 44/178/178 43/179/179 38/180/180
f 44/181/181 45/182/182 38/183/183
f 45/184/184 44/185/185 38/186/186
