# Blender v2.79 (sub 0) OBJ File: ''
# www.blender.org
mtllib vampire_bat.mtl
o body
v 0.500000 -1.937502 3.687500
v 0.812500 -0.312502 3.625000
v -0.187500 -0.375002 3.625000
v -0.375000 -1.937502 3.687500
v -0.812500 -0.437502 3.625000
v 1.187500 -1.750000 -0.000000
v 0.625000 0.000000 -2.562500
v 0.937500 0.000000 0.000000
v -0.937500 0.000000 0.000000
v -0.625000 0.000000 -2.562500
v -1.187500 -1.750000 -0.000000
v -1.625000 1.312500 3.187500
v -1.562500 -1.062500 2.875000
v -0.500000 -0.312502 4.250000
v 1.500000 -1.062500 2.875000
v 1.562500 1.312500 3.250000
v 0.375000 -0.312502 4.250000
v 0.500000 0.062500 1.812500
v -0.562500 0.062500 1.812500
v -0.937500 -1.687500 1.062500
v 0.937500 -1.687500 1.125000
v 0.625000 -0.750000 1.625000
v -0.625000 -0.750000 1.625000
v -2.500000 1.375000 3.250000
v -2.375000 1.999998 3.687500
v -1.875000 2.687498 3.687500
v 2.437500 1.312498 3.312500
v 2.312500 1.999998 3.687500
v 1.812500 2.624998 3.687500
v -1.000000 1.750000 -1.625000
v -1.000000 1.812500 1.437500
v -0.625000 -0.000000 1.125000
v -0.750000 0.250000 -1.000000
v -1.937500 2.875000 -0.937500
v -1.687500 2.687500 1.062500
v -3.062500 3.437500 0.062502
v -4.187500 3.750000 -1.437498
v 1.062500 1.812500 -1.687500
v 1.062500 1.812500 1.500000
v 0.687500 -0.000000 1.125000
v 0.812500 0.312500 -1.062500
v 2.062500 2.937500 -0.937500
v 1.812500 2.750000 1.125000
v 4.375000 3.875000 -1.437498
v 3.250000 3.500000 0.062502
vt 0.054389 0.176762
vt 0.294791 0.525110
vt 0.054389 0.613365
vt 0.447325 0.774022
vt 0.054389 0.686598
vt 0.447325 0.613480
vt 0.625006 0.651712
vt 0.635141 0.281427
vt 0.619131 0.665059
vt 0.633634 0.603547
vt 0.666219 0.039182
vt 0.629012 0.624251
vt 0.666370 0.140177
vt 0.750618 0.156491
vt 0.777960 0.227460
vt 0.774606 0.143031
vt 0.836465 0.039182
vt 0.836465 0.229703
vt 0.604943 0.960818
vt 0.604943 0.795599
vt 0.624513 0.690843
vt 0.602854 0.743314
vt 0.758901 0.126052
vt 0.747613 0.138502
vt 0.762519 0.138456
vt 0.755026 0.143780
vt 0.861563 0.229854
vt 0.885120 0.231346
vt 0.905828 0.246992
vt 0.861563 0.256705
vt 0.861563 0.256856
vt 0.885591 0.259847
vt 0.903824 0.276118
vt 0.861563 0.283639
vt 0.925727 0.149675
vt 0.836616 0.178060
vt 0.863842 0.228491
vt 0.922644 0.199777
vt 0.891593 0.113973
vt 0.836616 0.142208
vt 0.850486 0.087194
vt 0.883092 0.039182
vt 0.751298 0.229854
vt 0.714302 0.319868
vt 0.666370 0.287820
vt 0.701100 0.229854
vt 0.785099 0.268504
vt 0.752555 0.323252
vt 0.861412 0.283119
vt 0.810654 0.311961
vn -0.0024 0.0389 0.9992
vn 0.0040 -0.0405 -0.9992
vn 0.9828 0.1404 -0.1199
vn -0.9828 0.1404 -0.1199
vn -0.7585 -0.1046 0.6432
vn 0.7335 -0.1248 0.6682
vn 0.0000 0.9994 -0.0345
vn 0.0000 1.0000 0.0000
vn -0.0197 -0.3801 0.9247
vn 0.9646 0.1463 0.2195
vn -0.9701 0.1292 0.2053
vn 0.0000 -0.8258 -0.5640
vn -0.0008 -0.9984 0.0570
vn 0.0098 0.7474 -0.6643
vn 0.7842 0.1227 -0.6082
vn -0.7744 0.0980 -0.6250
vn -0.2232 0.4023 -0.8879
vn 0.0000 0.2249 -0.9744
vn 0.0000 -0.8779 0.4789
vn 0.0000 -0.9701 -0.2425
vn -0.2039 -0.3575 0.9114
vn 0.9828 0.1838 -0.0170
vn -0.4212 -0.9063 0.0360
vn -0.7742 -0.6326 0.0226
vn 0.9828 -0.1845 0.0121
vn 0.7613 -0.6483 0.0131
vn 0.4162 -0.9091 0.0171
usemtl vampire_bat_colors
s 1
f 1/1/1 2/2/1 3/3/1
f 3/4/2 4/5/2 5/6/2
f 6/7/3 7/8/3 8/9/3
f 9/10/4 10/11/4 11/12/4
f 12/13/5 13/14/5 14/15/5
f 15/16/6 16/17/6 17/18/6
f 18/19/7 8/9/7 9/10/7 19/20/7
f 8/9/8 7/8/8 10/11/8 9/10/8
f 18/19/9 19/20/9 20/21/9 21/22/9
f 21/22/10 6/7/10 8/9/10 18/19/10
f 19/20/11 9/10/11 11/12/11 20/21/11
f 6/7/12 11/12/12 10/11/12 7/8/12
f 21/22/13 20/21/13 11/12/13 6/7/13
f 16/17/14 18/23/14 19/24/14 12/13/14
f 15/16/15 22/25/15 18/23/15 16/17/15
f 23/26/16 13/14/16 12/13/16 19/24/16
f 24/27/17 25/28/17 26/29/17 12/30/17
f 19/24/18 18/23/18 22/25/18 23/26/18
f 13/14/19 15/16/19 17/18/19 14/15/19
f 22/25/20 15/16/20 13/14/20 23/26/20
f 27/31/21 28/32/21 29/33/21 16/34/21
f 30/35/22 31/36/22 32/37/22 33/38/22
f 34/39/23 35/40/23 36/41/23 37/42/23
f 30/35/24 31/36/24 35/40/24 34/39/24
f 38/43/25 39/44/25 40/45/25 41/46/25
f 42/47/26 43/48/26 39/44/26 38/43/26
f 44/49/27 45/50/27 43/48/27 42/47/27
o eyes
v -0.500000 -0.312502 4.250000
v 0.375000 -0.312502 4.250000
v 1.562500 1.312500 3.250000
v -1.625000 1.312500 3.187500
vt 0.286275 0.984314
vt 0.725490 0.984314
vt 1.000000 0.082353
vt 0.000000 0.082353
vn -0.0130 0.5360 0.8441
usemtl tex140
s 1
f 46/51/28 47/52/28 48/53/28 49/54/28
